<svg id="Layer_1" data-name="Layer 1" xmlns="http://www.w3.org/2000/svg" viewBox="0 0 92.95 72.82"><defs><style>.cls-1{fill:#27667c;}.cls-2{fill:none;}</style></defs><path class="cls-1" d="M50.16,67.23l-.06-.07,0,.07-.06,0H50v.15s0,0,0,0l0,.08v0l0,.12a.25.25,0,0,1,0,.07,2.47,2.47,0,0,1-.2.37l-.07,0-.05,0-.08,0,0,0h0s0,0-.05,0l0,0h-1l-.53,0s0,0,0,0h0a.1.1,0,0,0,0,0l-.07,0,0,0L47.4,68l0,0a.16.16,0,0,0,0-.07s0,0,0,0h0v0s0,0,0,0h0l0,0a8.11,8.11,0,0,1,0-1.15V65.5h0v0a1.77,1.77,0,0,0,0-.24v-.3l0,0h.07a.11.11,0,0,0,.08,0,.54.54,0,0,0,.19,0,.4.4,0,0,0,.17,0l.15,0v0l.4.06h0a.5.5,0,0,0,.21,0L49,65l0,0h0l0,0,.13.08,0,0,.08.06,0,.06,0,0a.43.43,0,0,0,0,.05.05.05,0,0,1,0,.06s0,0,0,0h0v.18l0,0,0,.09v0a.06.06,0,0,0,0,0h-.05l.05,0,0,0h.09a.05.05,0,0,0,0,0h0s0,0,0,0a.07.07,0,0,0,0,0v0a1,1,0,0,0,0-.2s0,0,0,0a.43.43,0,0,0,0-.16v0a.12.12,0,0,0,0-.1.07.07,0,0,0,0-.09h0a.43.43,0,0,0,0-.16h0a.06.06,0,0,0,0-.07h0v0a.7.7,0,0,1,0-.19.43.43,0,0,0,0-.05h0a.11.11,0,0,0,0-.08s0,0,0,0v-.11s0,0,0-.06h0a.11.11,0,0,0,0-.08h0a.09.09,0,0,0,0,0,.07.07,0,0,0,0-.05s0,0,0,0h-.08a.16.16,0,0,0-.11,0l0,0-.09.06-.07.07-.46,0-.3,0h0l-.65,0-.65,0a0,0,0,0,0,0,0h0l0-.47,0-.33v-.06l0,0V61.61l0,0h1.21l.16,0s0,0,0,0a.33.33,0,0,0,.14,0l.1,0,.17,0s.07,0,.08,0h0l0,0h0l0,0a.31.31,0,0,0,.11.09l0,.05s0,0,0,0V62s0,0,0,0v.05l0,.06s0,0,0,0v.06s0,0,0,0h0l0,.16h.25v-.05h0a.06.06,0,0,0,0-.07.17.17,0,0,0,0-.07V62.2a.06.06,0,0,0,0-.06,2.13,2.13,0,0,0,0-.27l0-.09a.17.17,0,0,0,0-.1.09.09,0,0,0,0-.07.11.11,0,0,0,0-.08h0a.24.24,0,0,0,0-.12,1.4,1.4,0,0,1,0-.23,0,0,0,0,0,0,0,.06.06,0,0,0,0-.07A.09.09,0,0,0,50,61l0,0,0-.05v0l0-.05h0l-.06,0h-.21s0,0,0,0c-.27,0-.85,0-1.46,0h-3.2v.2h.3l.08,0a.2.2,0,0,0,.11,0h0a.61.61,0,0,1,.39.21.1.1,0,0,0,0,.07.59.59,0,0,1,0,.13v.13h0v.1l0-.08h0c0,.08,0,.72,0,1.42v1.3h0c0,.18,0,.56,0,1v1h0V67h0v.13h0c0,.15,0,.3,0,.44h0s0,0,0,.08v.08a.22.22,0,0,0,0,.09v.09a.1.1,0,0,0,0,0v0c0,.1,0,.19,0,.26s0,0,0,0h0l0,0-.05.12a.1.1,0,0,0,0,0h0l0,0-.12,0h-.07s-.06,0-.05,0l-.2,0H45a.08.08,0,0,0,0,0h0v.09h0a.06.06,0,0,0,.06,0,0,0,0,0,0,0,0l.07,0,.06,0a.06.06,0,0,0,.08,0h.06l.09,0,.08,0h.61l.81,0h.37a0,0,0,0,0,.05,0h.29a1.16,1.16,0,0,1,.33,0h.08v0h.09l.06,0v0h1.6l.08,0v0l.07,0c.06,0,.08-.07.08-.09s0,0,0,0v0h0l0-.09a.09.09,0,0,0,0-.07s0,0,0-.07a.11.11,0,0,0,0-.05s0,0,0,0,0,0,0,0h0a.08.08,0,0,0,0-.08h0V68.1a.19.19,0,0,0,0-.08h0a.09.09,0,0,0,0-.07h0a.14.14,0,0,0,0-.06v0a.08.08,0,0,1,0,0,.22.22,0,0,0,0-.09s0,0,0-.06a.71.71,0,0,0,0-.15v-.25h0l-.05,0" transform="translate(15.35 -1.72)"/><path class="cls-1" d="M10.26,68.64h0s-.05,0-.05,0L10,68.6s0,0-.09,0h0l-.25,0-.06,0,0,0h0l-.2-.19a2.8,2.8,0,0,1-.27-.4c0-.08-.13-.27-.25-.55h0c-.06-.14-.12-.28-.2-.45v0l-.12-.28a.12.12,0,0,0,0-.08l0-.06h0v0a0,0,0,0,0,0,0h0l0-.05a.17.17,0,0,1,0,0l-.08-.18a.14.14,0,0,0,0-.06c0-.08-.07-.17-.11-.26a.13.13,0,0,0,0-.07l0-.08h0l0,0h0l0,0s0,0,0-.05,0,0,0,0a.16.16,0,0,0,0-.09.14.14,0,0,1,0-.06h0v0a.08.08,0,0,0,0,0h0l0,0,0-.07h0s0-.06,0-.1,0,0,0,0h0v0a0,0,0,0,0,0,0h0l0-.05a.59.59,0,0,0,0-.08l0-.08,0,0h0s0,0,0,0a.19.19,0,0,0-.06-.12s0,0,0,0h0v0l0-.07h0s0,0,0-.07a.36.36,0,0,0,0-.09l0,0h0l0,0a.21.21,0,0,0,0-.06h0s0-.08,0-.12h0v0h0v0l0,0h0l0,0s0,0,0,0l0,0a.16.16,0,0,0,0-.08.36.36,0,0,0,0-.09v0l-.06-.14a.16.16,0,0,0,0-.08l0-.07h0a.06.06,0,0,0,0,0h0l0,0A.15.15,0,0,0,7,63H7s0-.07,0-.11H7v0H7v0a0,0,0,0,0,0,0h0l0-.05s0-.08,0-.09v-.05l-.05-.06h0a.09.09,0,0,0,0-.08.2.2,0,0,0,0-.08.08.08,0,0,0,0,0h0l0-.05a.16.16,0,0,0,0-.07h0s0-.06,0-.11h0v0l0,0h0v0h0l0,0s0,0,0-.06h0s0-.06,0-.11v0h0v0s0,0,0,0h0s0-.09-.05-.13a.16.16,0,0,0,0-.08l0-.06h0v0l0,0h0l0,0a.36.36,0,0,0,0-.09v0l0,0h0l0,0,0-.05s0,0,0,0h0l0-.07,0,0,0-.06a0,0,0,0,0,0,0A.15.15,0,0,0,6,60.79H6s0-.07-.07-.07h0s-.09.05-.14.1-.06.09-.06.11h0l0,0v0s0,0,0,0l0,0h0l0,0v0a.13.13,0,0,0,0,.1l0,.06v0s0,0,0,.05h0l0,.06s0,.07,0,.09a.43.43,0,0,0,0,.07v0a0,0,0,0,0,0,.05l0,.07h0a.08.08,0,0,0,0,.09l0,.06,0,.07a.16.16,0,0,0,0,.08v0s0,0,0,0h0v0l0,0a.1.1,0,0,0,0,.09l-.06.12s0,0,0,.05l0,.06H5a.19.19,0,0,0,0,.07.58.58,0,0,0,0,.14s0,0,0,0h0v0h0l0,0s0,.07,0,.09a.18.18,0,0,0,0,.07v0s0,0,0,0v0l0,.06a.11.11,0,0,0,0,.09l0,.06v.05s0,0,0,0h0a.21.21,0,0,0,0,.07s0,.07,0,.09h0l0,.09h0s0,0,0,0a0,0,0,0,0,0,0h0l0,0a.09.09,0,0,0,0,.08,1,1,0,0,1-.07.15.24.24,0,0,0,0,.07l0,0s0,0,0,0v0l0,0a.08.08,0,0,0,0,.08.61.61,0,0,0,0,.12s0,0,0,0h0l0,0,0,0a.25.25,0,0,0,0,.07,1.21,1.21,0,0,0,0,.14s0,0,0,0h0v0l0,0s0,.07,0,.09a.18.18,0,0,0,0,.07v0a0,0,0,0,0,0,0v0l0,.06s0,.07,0,.09l0,.06v.05s0,0,0,0h0l0,.06a.14.14,0,0,0,0,.1l0,.06,0,.07a.16.16,0,0,0,0,.07l0,0s0,0,0,0h0v0l0,0a.11.11,0,0,0,0,.09v0l0,.05v0s0,0,0,.06h0l0,0s0,0,0,0a.19.19,0,0,0,0,.07l-.06.13a.06.06,0,0,0,0,0h0a.43.43,0,0,1,0,0l0,0a.1.1,0,0,0,0,.07l0,.07V67s0,0,0,0h0v0l0,0s0,.07,0,.09l0,.07v0s0,0,0,0h0s0,0,0,0h0a.11.11,0,0,0,0,.09.43.43,0,0,0,0,.07l0,.07a.09.09,0,0,0,0,.06s0,0,0,0a.08.08,0,0,0,0,0h0a.08.08,0,0,0,0,0L2.82,68l0,0h0l0,.12a1,1,0,0,1-.24.31l-.08.07,0,0h0l-.1,0,0,0H2.06c-.05,0-.07,0-.05,0H2l-.24,0H1.7s0,0-.07,0a.07.07,0,0,0,0,.06l0,0h0a.06.06,0,0,0,.08,0l.09,0a.15.15,0,0,0,.1,0h1v0h1.5v-.2H4.22a1.41,1.41,0,0,1-.28,0s0,0,0,0h0l-.12,0-.05,0v-.15h0l0-.11v0h0v0a.11.11,0,0,0,0-.08A.18.18,0,0,0,3.72,68l0-.05h0a.07.07,0,0,0,0,0,.19.19,0,0,0,0-.08h0a.43.43,0,0,1,0,0h0a.08.08,0,0,0,0-.08l0-.06,0-.05h0a.09.09,0,0,0,0,0,.43.43,0,0,0,0-.07.13.13,0,0,0,0-.07c0-.07.06-.16.09-.25s0-.08,0-.1h0l0-.06a.17.17,0,0,0,0,0h0a.08.08,0,0,0,0-.08l0-.06v0h0a.13.13,0,0,0,0-.06l0,0s0-.06,0-.08a2.16,2.16,0,0,0,.1-.25s0-.07,0-.09h0l.07,0c.16,0,.44,0,.77,0H6.86l0,0v0h0s0,.06,0,.06l0,.11v0a.14.14,0,0,0,0,.1l0,0s0,0,0,0l0,.12h0v0h0s0,.05,0,.05v0s0,0,0,0v.07a.12.12,0,0,0,0,.09v0h0a.08.08,0,0,0,0,.05l0,.12v0a.09.09,0,0,0,0,.08.25.25,0,0,1,0,.07l0,0a.58.58,0,0,0,0,.14h0a.06.06,0,0,0,0,0s0,.08,0,.12v0a.15.15,0,0,0,0,.08c.11.33.19.59.2.66v0a.17.17,0,0,1-.13.07H7.47l0,.05a0,0,0,0,0,0,0l0,0,0,0,0,0,0,0h0v0h0s.07,0,.09,0a.08.08,0,0,0,.08,0h.75s0,0,0,0h.3a0,0,0,0,0,0,0h.55s0,0,0,0h.75a.12.12,0,0,0,.12,0h0a.08.08,0,0,0,0-.1s-.05-.06-.07,0M6.55,65.56H4.82c-.09,0-.15,0-.15,0s0-.06,0-.12a.17.17,0,0,0,0,0l.06-.16h0v0l0-.07a.75.75,0,0,0,.08-.29.13.13,0,0,0,0-.07l0,0H5a.07.07,0,0,0,0-.06s0,0,0,0a.12.12,0,0,0,0-.09.5.5,0,0,1,.05-.13h0a.08.08,0,0,0,0,0l.06-.16a.09.09,0,0,0,0,0v0h0s.07-.1,0-.12h0l0-.06v-.06h0a.07.07,0,0,0,0-.05,1,1,0,0,0,.12-.35.43.43,0,0,0,0-.07l0,0h0l0,0a.54.54,0,0,0,.05-.11,0,0,0,0,0,0,0v0s0,0,0,0l0-.05,0,0h0v0s0,.05,0,.05l0,0,0,0a.49.49,0,0,0,0,.12.19.19,0,0,0,0,.07.89.89,0,0,0,.08.17h0s0,0,0,0v.05l0,0v0H6v0s0,.05,0,.05v.06s0,0,0,.05v0a.11.11,0,0,0,.06.09v0h0s0,0,0,.06l0,0a.21.21,0,0,0,0,.06s0,0,0,0h0v0h0s0,.05,0,.05l0,0a0,0,0,0,0,0,0,.43.43,0,0,1,0,0v0a.12.12,0,0,0,0,.09l0,0v0s0,0,0,0l0,0a.16.16,0,0,0,0,.06s0,0,0,0h0v0h0s0,.06,0,.06v0l0,0s0,0,0,.08a.64.64,0,0,1,0,.07c0,.06,0,.12.07.17l0,0v0s0,0,0,0l0,0,0,.06,0,0h0Z" transform="translate(15.35 -1.72)"/><path class="cls-1" d="M23.77,68.63h0l-.3,0h0s0,0-.09,0h-.16l-.2,0a.4.4,0,0,1-.16-.16l0-.05,0,0-.07-.17a.17.17,0,0,0,0-.1.1.1,0,0,0,0-.09h0a.12.12,0,0,0,0-.12h0a.25.25,0,0,0,0-.17h0V61.78a.12.12,0,0,0,0-.1.09.09,0,0,0,0-.07.09.09,0,0,0,0-.07.33.33,0,0,0,0-.06v0l.06-.07h0a.36.36,0,0,0,.09-.09l.06,0h.18a.08.08,0,0,0,.08,0h0l.18,0h.14V61H20.23v.18h.08l.28,0h.34a.35.35,0,0,0,.11.08l.05.05.09.07,0,0v.08s0,.06,0,.06l0,1.25,0,1.33h0l-2.06,0h-2c0-.12,0-.4,0-.73s0-.45,0-.62h0v-1.3s0,0,0-.05l0,0h0s0,0,0,0l0-.05,0-.06s.06-.05.06-.07h0l.16,0h.06a.07.07,0,0,0,.09,0h0l.26,0h.06V61H16.45c-.56,0-1.07,0-1.38,0h-.14s0,0,0,0a.1.1,0,0,0-.09,0h0v0h0s0,0,0,0v0h0a.07.07,0,0,0,.07.06h.07a1.3,1.3,0,0,0,.26,0h0a.2.2,0,0,0,.11,0l.25,0,.1.11,0,0,.09.1v6.57l0,0s0,0,0,.05v.06h0l0,.06,0,.11a.16.16,0,0,0,0,.06l0,0,0,0-.16,0a0,0,0,0,0-.05,0h-.12l0,0-.22,0h-.12v.1h0v.09h3.4v-.18h-.09l-.31,0s0,0-.09,0h-.13s0,0-.05,0l-.16,0,0,0,0,0a.19.19,0,0,0-.06-.07h0l-.06-.07h0l0,0h0a.11.11,0,0,0,0-.08.11.11,0,0,0,0-.08h0V66.6l0-1.46v-.23h2.06c.87,0,1.62,0,1.92,0h.08s0,0,0,0l0,1.61v1.37s0,0,0,.09v.06a.16.16,0,0,0,0,.07v0s0,0,0,0v0l-.07.11-.05.07-.09.12-.09,0h-.09s-.06,0-.05,0h-.05l-.14,0h-.16l0,0a.08.08,0,0,0,0,.1h0a0,0,0,0,0,0,0,.07.07,0,0,0,.09,0h.36s0,0,0,0h2.89v-.18h-.05m-3.29.05Z" transform="translate(15.35 -1.72)"/><path class="cls-1" d="M39.82,68.65h0l0,0h-.28s0,0-.08,0h-.06a.08.08,0,0,0-.07,0h-.07l-.06,0h0a0,0,0,0,0,0,0h0l-.07,0h0l0,0,0,0-.09-.12,0,0a.41.41,0,0,0,0-.09.77.77,0,0,1-.1-.33.07.07,0,0,0,0,0,.13.13,0,0,0,0-.06h0l0,0a.56.56,0,0,0-.05-.08h0a.12.12,0,0,0,0-.1.11.11,0,0,0,0-.08.06.06,0,0,0,0-.07h0v-.1l0-.28a.17.17,0,0,0,0-.07v0h0v0l0-.07h0a.12.12,0,0,0,0-.1.08.08,0,0,0,0-.07.08.08,0,0,0,0-.08h0c0-.12,0-.22,0-.32a.07.07,0,0,0,0,0,.11.11,0,0,0,0-.08h0a2,2,0,0,0-.05-.32.06.06,0,0,0,0-.06.08.08,0,0,0,0-.08h0l0,0a.18.18,0,0,0,0-.07v0a.17.17,0,0,0,0-.1.09.09,0,0,0,0-.07.11.11,0,0,0,0-.08h0c0-.1,0-.21,0-.32s0,0,0,0a.08.08,0,0,0,0-.08h0a2.49,2.49,0,0,0,0-.34.17.17,0,0,0,0-.07h0v0h0l0-.07L38,64.15h0a.34.34,0,0,0,0-.1v0s0,0,0-.06a.08.08,0,0,0,0-.08h0l0,0,0,0v-.19h0v0a.09.09,0,0,0,0-.07.08.08,0,0,0,0-.08h0c0-.1,0-.22,0-.35s0-.09,0-.1h0c0-.08,0-.17,0-.27a0,0,0,0,0,0,0h0a.08.08,0,0,0,0-.08h0a3.06,3.06,0,0,1,0-.32.13.13,0,0,0,0-.06s0,0,0-.07h0a2.17,2.17,0,0,0,0-.25.07.07,0,0,0,0,0v0h0a.13.13,0,0,0,0-.12h0l0-.17s0,0,0-.06a.09.09,0,0,0,0-.07.08.08,0,0,0,0-.08h0a.59.59,0,0,1,0-.13.08.08,0,0,0,0-.05v0a.09.09,0,0,0,0-.07h0l0-.1a.36.36,0,0,0,0-.09h0l0,0,0,0s-.08,0-.08,0l0,0,0,0-.06.06s0,0-.06.07a.11.11,0,0,0,0,.07l0,.06a.09.09,0,0,0,0,.08,2.14,2.14,0,0,0-.21.38,2.19,2.19,0,0,0-.18.42l-.22.43a.79.79,0,0,0,0,.09l0,.07-.12.25s0,.08-.07.13a1.17,1.17,0,0,1,0,.11.2.2,0,0,1,0,.08l0,.08a.25.25,0,0,0,0,.07l-.09.19a2.72,2.72,0,0,0-.16.3l-.19.4L35,65.27l0,.06a.14.14,0,0,0,0,.06c0,.09-.09.17-.13.25l-.13.25c-.09.2-.17.37-.2.45l-.14.3,0,.07,0,.11,0,0h0l0-.06,0-.06L34,66.45s0-.1-.07-.15L32.81,64l-.09-.19c-.12-.28-.44-.92-.62-1.26L32,62.28a1.1,1.1,0,0,0-.12-.25l-.05-.09-.07-.14-.18-.38c-.11-.23-.19-.36-.23-.44l0,0-.09-.12-.06-.07,0,0h0l0,0s0,0,0,0h-.06a.13.13,0,0,0-.07.06l0,.07h0a.23.23,0,0,0,0,.1h0s0,0,0,.08v.1a.36.36,0,0,0,0,.11l0,0s0,0,0,0v.06s0,0,0,0a.08.08,0,0,0,0,.07v0s0,0,0,0v0s0,.09,0,.13h0s-.05,0-.05,0,0,0,0,0,0,0,0,0,0,0,0,0v.07h0l0,.16s0,0,0,.05v.06s0,0,0,0a.15.15,0,0,0,0,.07h0a2.07,2.07,0,0,0,0,.22s0,0,0,.06a.05.05,0,0,1,0,.06s0,0,0,0v0a1.55,1.55,0,0,1,0,.21s0,0,0,.05V63s0,0,0,0a.07.07,0,0,0,0,.05,2.17,2.17,0,0,1,0,.25s0,0,0,0,0,0,0,0a.05.05,0,0,0,0,.06c0,.08,0,.16,0,.25s0,0,0,0v.06s0,0,0,0h0c0,.1,0,.19,0,.29s0,0,0,0,0,0,0,0v0l0,.25h0s0,0,0,.05v.1l0,.21s0,0,0,.05a.2.2,0,0,0,0,.13v0l0,.26s0,0,0,.06v.1l0,.24s0,0,0,0V66s0,0,0,0v0l-.05.26s0,0,0,.06,0,0,0,0,0,0,0,0a0,0,0,0,0,0,0l0,.25s0,0,0,0v.06s0,0,0,0v0l-.05.27s0,0,0,.06,0,0,0,0,0,0,0,0v0l0,.25s0,0,0,0v.06s0,0,0,0l-.05.3s0,0,0,.1v.12l-.12.16-.07.1-.11.08-.24,0-.22,0h-.09v.18h2.62v-.18h-.08l-.26,0h0s0,0-.05,0h-.24a.12.12,0,0,0-.09,0l-.07-.08-.07-.06s0,0,0,0h-.05l0-.23s0,0,0,0a.38.38,0,0,0,0-.15v0a.07.07,0,0,0,0,0c0-.1,0-.23.05-.39h0a.08.08,0,0,0,0-.08h0a.08.08,0,0,0,0,0c0-.11,0-.23,0-.36h0a.31.31,0,0,0,0-.09c0-.13,0-.26.05-.4h0a.08.08,0,0,0,0-.08.11.11,0,0,0,0,0c0-.11,0-.22,0-.34v0a.38.38,0,0,0,0-.1v-.05a.09.09,0,0,0,0,0c0-.1,0-.19,0-.29h0a.11.11,0,0,0,0-.08.13.13,0,0,0,0-.06,3.11,3.11,0,0,1,0-.32v0a.22.22,0,0,0,0-.11h0s0,0,0,0,0-.23,0-.33h0a.11.11,0,0,0,0-.08.06.06,0,0,0,0-.06h0a.06.06,0,0,0,0,0c0-.13,0-.24,0-.33h0a.06.06,0,0,0,0-.07.09.09,0,0,0,0-.07s0,0,0-.06h0l.58,1.13a3.62,3.62,0,0,0,.28.56l0,.07h0v0h0s0,0,0,.06l0,0a.12.12,0,0,0,0,.08v0a1.56,1.56,0,0,0,.07.17l.1.18.25.49a1.26,1.26,0,0,0,.08.18,1.9,1.9,0,0,0,.11.21.47.47,0,0,1,0,.1l0,0a.93.93,0,0,0,.08.17l0,.09.06.1h0a1.53,1.53,0,0,0,.13.28h0l.07.13.05.08s0,.06,0,.06a0,0,0,0,0,0,0h0a.33.33,0,0,1,.06.08v0l0-.06.08.16.05.13s0,0,0,0l0,0h0v0l0,0a.28.28,0,0,0,.07.13h0l0,.06,0,.09h0a.15.15,0,0,0,.1,0H34l.05,0h0l.1-.19a3.32,3.32,0,0,0,.31-.6l0-.12.1-.24h0a2.45,2.45,0,0,0,.2-.36l.09-.17.19-.38a.93.93,0,0,0,0-.1l0-.06.13-.27s0,0,0,0l.09-.2,0,0h0l0-.08c.16-.31.4-.79.47-1l.08-.16.48-1,.06-.1,0-.08v0s0,0,0,0,0,0,0,0v0s0,0,0,0a.15.15,0,0,0,0,.07V64l0-.05,0,.23v0s0,0,0,0v.19l0,0,0,.2h0l0,.13v.09s0,0,0,0,0,.18.05.3,0,0,0,0,0,0,0,0,0,0,0,0,0,.05,0,.05,0,.18,0,.27v.13s0,0,0,.06,0,.21,0,.3,0,0,0,0,0,0,0,0,0,0,0,0,0,.06,0,0v0a.87.87,0,0,1,0,.1h0v.18a0,0,0,0,0,0,0v0a.25.25,0,0,0,0,.09h0v.09l0,0v0l0,.06s0,0,0,0,0,0,0,0V67a.1.1,0,0,0,0,0s0,0,0,0,0,0,0,0,0,.07,0,.05h0a2.5,2.5,0,0,0,0,.32,0,0,0,0,0,0,0v.07s0,.06,0,0a.3.3,0,0,0,0,.1s0,0,0,0,0,0,0,0h0v0a.4.4,0,0,0,0,.11V68s0,0,0,0a0,0,0,0,0,0,0,.08.08,0,0,0,0,0l0,0a.06.06,0,0,0,0,0,.13.13,0,0,1,0,.1s0,0,0,0l0,.05v0a.17.17,0,0,0-.06.06h0s0,0-.06.06h0s0,0,0,0l0,0,0,0,0,0h0s0,.07.06.08h0l0,0h.09l.28,0s0,0,0,0h.21v0H38l.88,0h.46l.06,0,.06,0h.13l.07,0h.16a.05.05,0,0,0,0,0h0v-.07h0v0s0,0,0,0m-.47,0h0" transform="translate(15.35 -1.72)"/><path class="cls-1" d="M64.59,64.92a.66.66,0,0,0,0-.2l0-.2v-.13h-.06a.59.59,0,0,1,0-.14v0s0,0,0,0V64a.09.09,0,0,0,0-.07h0l0-.05a.56.56,0,0,0-.05-.08h0a.13.13,0,0,0,0-.06l0-.08h0v0l0-.06a.07.07,0,0,0,0,0l0-.05h0v0a.43.43,0,0,0,0-.07h0a.07.07,0,0,0,0-.08s0,0,0,0v0l0,0,0,0s0,0,0,0h0v0l0-.07s0,0,0,0l0,0a.23.23,0,0,0-.05-.1h0a.13.13,0,0,0,0-.07s0-.07-.07-.13l-.09-.11-.14-.21a.1.1,0,0,0,0,0l0-.05h0l0,0,0,0v0L63.45,62h0a.29.29,0,0,0-.13-.1h0l-.09-.08-.05,0h0A.17.17,0,0,0,63,61.7s0-.06-.07-.06h0l0,0-.06,0s-.06-.07-.08-.07h0a.46.46,0,0,0-.17-.09h0l0,0h0l-.06,0a.12.12,0,0,0-.08,0h0s0,0-.05,0h0a.09.09,0,0,0-.06,0l0,0s0,0-.06,0h0s0,0-.07,0h0s0,0-.05,0h-.12a.06.06,0,0,0-.06,0l0,0s0,0,0,0h-.2l-.08,0s0,0,0,0H60.8s0,0,0,0h-.13s-.05,0-.05,0h-.17s0,0,0,0,0,0,0,0h-.16s0,0-.09,0h-.32l-.08,0-.28,0-.28,0L59,61h-.17a.13.13,0,0,0-.09,0h-1.7l-.55,0h-.2a.32.32,0,0,0-.14,0,.07.07,0,0,0-.06,0H56A.12.12,0,0,0,56,61h0v0h0s0,0,0,0l0,0,0,0h0a.08.08,0,0,0,.07,0h.13l.18,0,.06,0h.1l.27,0h0l.08.1a.45.45,0,0,0,.09.1l0,.1a.1.1,0,0,0,0,0,.06.06,0,0,0,0,0v.17a.15.15,0,0,0,0,.07V62c0,.21,0,.52,0,.7V63l0,0V64.8h0v1.6h0v.9h0v.41h0a2,2,0,0,1,0,.31s0,0,0,0h0s0,0,0,0,0,0,0,0,0,0,0,0a.05.05,0,0,1,0,.06s0,0,0,0l0,.06,0,.07,0,.06v0h0l-.05,0h0l0,0h0l0,0a.06.06,0,0,0-.06,0h-.09s-.06,0,0,0l-.05,0,0,0a.3.3,0,0,0-.15,0h0a.07.07,0,0,0-.05,0h0v.17l.05,0h.17l.12,0,0,0h.1l.07,0h1.19s0,0,0,0H58a0,0,0,0,0,.07,0l.06,0h.11s0,0,0,0v0h0l0,.05h.87l.23,0h0l0,0,.35,0h.33l.44,0h.12a.11.11,0,0,0,.08,0h0a.17.17,0,0,0,.1,0h.15l.19,0h.08l0,0,.07,0h.19l0,0h.1l0,0,0,0h.07a.05.05,0,0,0,0,0h0l.06,0h0a.15.15,0,0,0,.11-.06h.05l0,0h0l0,0a.13.13,0,0,0,.09,0h0l.09-.05,0,0h0a.14.14,0,0,0,.07,0l0,0a.68.68,0,0,0,.21-.12L63.1,68l.12-.1h0a.15.15,0,0,0,.11-.07l.1-.09h0a.17.17,0,0,0,.06-.06h0l0,0a.58.58,0,0,0,.1-.12.1.1,0,0,0,0-.05v0l.06-.08c.07-.06.11-.11.09-.12s0-.07.09-.12.06-.07,0-.08l0,0,0,0,0,0h0a.25.25,0,0,0,0-.11l0-.06h0a.39.39,0,0,0,.1-.19h0s0,0,0,0a.12.12,0,0,0,0-.08,1.12,1.12,0,0,0,0-.13h0a.14.14,0,0,0,0-.06v0h0s.06-.09,0-.11a2.7,2.7,0,0,0,.1-.44h0a.07.07,0,0,0,0-.09h0a.17.17,0,0,0,0-.1v0s0,0,0,0v0a1.5,1.5,0,0,1,0-.2s0,0,0,0a.22.22,0,0,0,0-.16v0h0Zm-4.36,3.45h-1l-.05,0,0,0h0s0,0-.05,0H59l-.06,0h-.05s0,0,0,0h0a.12.12,0,0,0,0,0,.09.09,0,0,0-.08,0s0,0,0,0h0a.67.67,0,0,1-.14-.16l-.06-.12h0l-.06-.08v0h0a.09.09,0,0,0,0,0s0-.06,0-.07v0a.14.14,0,0,0,0-.11v-.12a3.61,3.61,0,0,0,0-.44h0v-.31a7.73,7.73,0,0,0-.09-1.1l0,0v-.91a7.81,7.81,0,0,0,0-.86v0l0-.9,0-.64V62l0,0,0-.2v-.19a.08.08,0,0,0,0,0l.1,0,.09,0,.15,0h.08v0H59l0,0v0h.27l.53,0h0a.12.12,0,0,0,.1,0l.24,0h0l0,0h.13l.19,0v0a.11.11,0,0,0,.08,0l.06,0,.06,0h0a.06.06,0,0,0,.07,0h0l.09,0h0l.08,0a.13.13,0,0,0,.07,0,3.09,3.09,0,0,1,.43.24l.06,0a.1.1,0,0,0,.08,0l.11.08s0,.06.07.06a.11.11,0,0,0,.07.06l.19.17.19.17h0l0,.08,0,0,0,.07.06.09,0,0,0,0h0l0,0h0v0s0,0,0,0h0l0,.09a1.45,1.45,0,0,0,.12.22h0s0,0,0,0l.05.13v0a0,0,0,0,0,0,.05h0a.59.59,0,0,0,0,.08A.43.43,0,0,0,63,64v.06h0v.06l.06,0h0v0a.2.2,0,0,0,0,.11v0a.06.06,0,0,0,0,.05s0,0,0,0a.47.47,0,0,1,0,.17h0c0,.06,0,.13,0,.22a0,0,0,0,0,0,0s0,0,0,0h0a.11.11,0,0,0,0,.06v.13l0,.63h0l0,.22a.43.43,0,0,0,0,0h0s0,0,0,0h0v0h0v.07a2.27,2.27,0,0,1-.06.25.07.07,0,0,0,0,0h0c0,.06,0,.11,0,.16a.25.25,0,0,1,0,.07.19.19,0,0,0,0,.1s0,.09,0,.12l0,0,0,0,0,.07,0,0-.12.15,0,0s0,0,0,.06a.16.16,0,0,0-.06.08l0,0a1.68,1.68,0,0,1-.23.18.1.1,0,0,0-.07,0l0,0,0,0a.47.47,0,0,0-.09.06h0l-.05,0a.18.18,0,0,0-.07.05l-.13.09a.05.05,0,0,0-.05,0l-.06,0a.11.11,0,0,0-.07,0l-.07,0a.05.05,0,0,0,0,0l-.06,0,0,0h-.09l-.06,0,0,0h0s-.07,0,0,.05H61l-.18,0h0s0,0,0,0h0l-.16,0h-.35" transform="translate(15.35 -1.72)"/><path class="cls-1" d="M48.5,50.6c.09-.08.14-.14.14-.17a.15.15,0,0,0,0-.07v0l0-.07c.06,0,.11-.08.11-.11v0l0-.07a.09.09,0,0,0,0,0h0a1.58,1.58,0,0,0,.32-.62c0-.06,0-.12.07-.17h0a.08.08,0,0,0,0-.07l0,0a1.22,1.22,0,0,0,.15-.43l.15-.43,0-.36,0-.06a.22.22,0,0,0,0-.16.11.11,0,0,0,0-.12h0a.26.26,0,0,0,0-.15l0-.61,0-.21a.17.17,0,0,0,0-.07.11.11,0,0,0,0-.11h0l0-.3V46s0,0,0-.07h0s0-.08,0-.13l-.07-.42L49.31,45a.11.11,0,0,0,0-.08h0l0,0a1.69,1.69,0,0,0-.13-.3c-.1-.19-.16-.32-.21-.39a.25.25,0,0,0,0-.07l0-.06v0a.36.36,0,0,0,0-.09l-.13-.26-.33-.36a.48.48,0,0,0-.11-.15L48.05,43h0L48,43l0-.05v0a.18.18,0,0,0-.09-.1,1.16,1.16,0,0,0-.2-.18l0,0a.42.42,0,0,0-.22-.16l-.13-.11-.08-.07v0a.22.22,0,0,0-.16-.09l-.1-.07a.35.35,0,0,0-.15-.12.19.19,0,0,0-.09,0l0,0h0l0,0a.23.23,0,0,0-.19-.1c0-.06-.08-.1-.11-.1s0,0,0,0a1.87,1.87,0,0,0-.27-.15l-.1,0-.23-.12s0,0,0,0h0l0,0,.15,0a.1.1,0,0,0,.09,0,.09.09,0,0,0,.11,0v0l.23,0,.14,0a.12.12,0,0,0,.11,0h0l.43-.08.36-.18h0s0,0,0,0h0l.06,0c.09,0,.14-.07.15-.1l.1-.05h0l.15-.06h0l.1-.06,0,0,.05,0,.06,0,.32-.16.28-.32h0l.2-.2,0,0a.28.28,0,0,0,.07-.13l.07-.09a.09.09,0,0,0,0-.05h0c.06,0,.09-.07.09-.1h0c.06-.06.09-.12.08-.16v0c.06,0,.1-.07.1-.1v0a.42.42,0,0,0,.08-.15.68.68,0,0,0,.07-.17h0a.11.11,0,0,0,0-.08,1.15,1.15,0,0,0,.17-.49h0a.09.09,0,0,0,0-.07,1.6,1.6,0,0,1,.05-.21h0a.13.13,0,0,0,0-.12l.08-.37h0a.13.13,0,0,0,0-.09l0-.09,0-3.78c0-.81,0-1.68,0-2.3,0-.11,0-.2,0-.27V29.31l0,0A.66.66,0,0,0,50,29a.72.72,0,0,0,0-.24h0v-.36l-.25-.53h0v0l0,0h0l0-.07a.69.69,0,0,0-.07-.13l0-.06a.34.34,0,0,0-.08-.14v0s0-.05-.06-.06a1,1,0,0,0-.19-.32l-.12-.14a.08.08,0,0,0,0-.05.22.22,0,0,0-.09-.1l0,0,0,0h0s0,0,0,0a.19.19,0,0,0-.1-.15h0s0,0-.06,0l-.15-.18v0a.19.19,0,0,0-.1-.1l-.19-.18,0,0a.42.42,0,0,0-.22-.16L48,25.66l0,0-.07-.06c-.08-.1-.14-.14-.17-.14h0a1.17,1.17,0,0,0-.19-.14s0,0-.06,0a1.88,1.88,0,0,0-.23-.16.13.13,0,0,0-.07,0,1.83,1.83,0,0,0-.36-.19l0,0a.14.14,0,0,0-.1-.08,0,0,0,0,0,0,0l-.11-.06,0,0-.41-.2a.35.35,0,0,0-.11-.07l-.09,0a.19.19,0,0,0-.11-.06l0,0s0,0-.08,0h0c0-.08-.19-.12-.23-.09l-.13-.05s0-.05-.08-.05h0L45,24h0s0,0-.07,0h0l-.15,0a.2.2,0,0,0-.17,0l-.14,0,0-.05a.23.23,0,0,0-.11-.06l-.06,0,0,0a.22.22,0,0,0-.18-.1l0,0a.12.12,0,0,0-.09-.07h0l-.16-.08v0a.15.15,0,0,0-.11-.09h0l0,0a.45.45,0,0,0-.23-.17,9.38,9.38,0,0,0-.71-.69l0-.05a.5.5,0,0,0-.16-.25l0,0s0,0,0,0,0,0,0,0,0,0,0,0h0a.17.17,0,0,0-.12.07.23.23,0,0,0-.07.15v0l0,0a6.26,6.26,0,0,0-.5.46,5.58,5.58,0,0,0-.37.42.19.19,0,0,0-.1.1h0a.11.11,0,0,0-.07,0,.81.81,0,0,0-.24.14l0,0s0,0,0,0l-.08.07a1,1,0,0,0-.23.12L39.8,24l-.19.07a1.13,1.13,0,0,0-.36.17h0s-.07,0-.08,0l-.09,0-.06,0h0a.19.19,0,0,0-.16.1h0a.1.1,0,0,0-.07,0l-.12.07,0,0s-.07,0-.17.08h0s-.05,0-.12.06l-.45.22a.15.15,0,0,0-.11.06l0,0-.23.15-.34.24,0,0-.09.07a.13.13,0,0,0-.13.06l0,.05-.08.08-.06.06-.17.13-.14.13a.9.9,0,0,0-.25.21,1,1,0,0,0-.18.24l-.14.16-.08.1,0,0s-.06,0-.1.1a.12.12,0,0,0,0,.09L35.4,27l0,0a.24.24,0,0,0-.1.1l-.06.11,0,0c0,.06-.06.11-.07.14l-.06.09,0,.06s0,0-.07.08a.12.12,0,0,0-.05.09s0,.05,0,.06a.36.36,0,0,0-.07.1l0,.07s0,0,0,.07v0h0l0,.07a.15.15,0,0,0,0,.12.08.08,0,0,0,0,.06v0c0,.06,0,.13,0,.2s0,0,0,.13v0l0,.07,0,.24s0,0,0,.13v.12l0,.16,0,1.6,0,1.43,0,0v2.21c0,.94,0,1.76,0,2.06a.16.16,0,0,0,0,.11v.14l0,0h0l.07-.06c.08-.06.15-.12.15-.14h0l.38-.39.1-.1a8.24,8.24,0,0,1,2.31-1.49l.09,0,.07,0,.59-.22h0a.09.09,0,0,0,.08,0h0v-5h0l0-.64v-.1a.11.11,0,0,0,0-.11v0a1.26,1.26,0,0,1,0-.25.22.22,0,0,0,.05-.08l0-.07h0a.12.12,0,0,0,0-.08s0-.07,0-.12a1,1,0,0,1,.06-.28h0a.24.24,0,0,0,0-.08,2,2,0,0,1,.1-.26h0s0,0,0-.06h0a.19.19,0,0,0,0-.08.21.21,0,0,0,.07-.1.17.17,0,0,0,0-.11l.15-.16a.1.1,0,0,1,0-.05l.05,0v0h0l0-.06.15-.13a3,3,0,0,0,.28-.29.22.22,0,0,0,.11-.1l0,0a.3.3,0,0,0,.13-.07L40,26h0l.06,0a3.8,3.8,0,0,0,.45-.22.09.09,0,0,0,.09,0h0l.07,0,.09-.06h.12a.25.25,0,0,0,.16-.08,1,1,0,0,0,.21,0,.11.11,0,0,0,.12,0h0l.07,0,.09,0h.07a.16.16,0,0,0,.12,0,.13.13,0,0,0,.12,0h0a.19.19,0,0,0,.15,0h.19l.82,0h0l.25,0,.07,0h0a.11.11,0,0,0,.11,0,4.92,4.92,0,0,1,.92.37l.4.19a.05.05,0,0,0,.05,0h0l.17.09h0a.26.26,0,0,0,.09.09l.06.06.24.32a3.87,3.87,0,0,1,.33.58.16.16,0,0,0,.06.12s0,.08,0,.11,0,0,0,0l0,.09.05.16v.07s0,.08,0,.07l0,.18v.18a.43.43,0,0,0,0,0s0,0,0,.05a.43.43,0,0,0,0,.05s0,0,0,0l0,5.22,0,5.36s0,0,0,.08a.13.13,0,0,0,0,.06.14.14,0,0,0,0,.09v.06l-.05.1a.67.67,0,0,0-.06.12l-.1.2-.19.38-.06.07,0,.06-.21.12-.16.09h0s-.07,0-.17.08l0,0-.07,0h-.1s-.08,0-.07,0H42.71s0,0-.14,0-.17,0-.13,0h-.06s-.05,0-.24,0H41.7c-.13,0-.17,0-.12,0H41l-.13,0h0l-.07,0-.35.09h-.06c-.05,0-.08,0-.07,0l-.2,0H40c-.06,0-.09,0-.08.06l-.16,0h0c-.06,0-.08,0-.08,0l-.17.05h0c-.06,0-.08,0-.08,0l-.16.06h0s-.06,0-.07,0l-.12.07h0l-.14.07-.06,0h0a1.21,1.21,0,0,0-.35.15l-.24.15-.15.08h0a.15.15,0,0,0-.07.06h0l-.08.05a1.14,1.14,0,0,0-.29.18l-.1.09h0s-.07,0-.12.11l-.11.08h0a.42.42,0,0,0-.21.16l0,0a.24.24,0,0,0-.11.1.27.27,0,0,0-.1.11.88.88,0,0,0-.2.2l-.06.07s-.08,0-.12.1a.27.27,0,0,0-.1.11.37.37,0,0,0-.14.13.28.28,0,0,0-.08.17s-.08.09-.13.14l-.13.17,0,0-.05.1a.18.18,0,0,0-.08.09l-.07.1,0,0-.07.1a.9.9,0,0,0-.13.19,3.25,3.25,0,0,1-.71.78l-.09.05a1.57,1.57,0,0,1-.25.14,1,1,0,0,0-.25.09l-.07,0-.2.06H31.18l-.25-.1-.18-.1a1.18,1.18,0,0,0-.23-.09v-.65c0-.24,0-.46,0-.67h0a.18.18,0,0,0,0-.18h0c0-.12,0-.23-.05-.34a.37.37,0,0,0,0-.11.11.11,0,0,0,0-.12h0a1.36,1.36,0,0,0,0-.17.14.14,0,0,0,0-.09s0-.11-.07-.17l0,0s0,0,0,0h0v0a.14.14,0,0,0,0-.06h0l0-.07c0-.09-.07-.14-.1-.15a.41.41,0,0,0-.05-.09h0L30,42.08a.51.51,0,0,0-.08-.14v0l-.05-.06h0l-.06-.12-.16-.31L29.23,41a1.31,1.31,0,0,0-.46-.45l-.22-.19-.1-.09h0c0-.06-.08-.1-.11-.1s0,0,0,0l0,0-.16-.12a.12.12,0,0,0-.08,0l-.21-.15h0a.05.05,0,0,0-.05,0,1.88,1.88,0,0,0-.23-.16.13.13,0,0,0-.07,0l-.4-.23a.11.11,0,0,0-.08-.06h0a.19.19,0,0,0-.09,0h0l-.09-.05a.19.19,0,0,0-.09,0l-.08,0-.11-.06-.05,0s0,0-.08,0h-.06a.21.21,0,0,0-.2-.08l-.07,0-.07,0s0,0-.08,0h0l-.19-.09a2.49,2.49,0,0,0-.62-.18L25,38.51l-.1,0a.23.23,0,0,0-.11-.07l-.07,0h0l-.06,0-.23-.16a4.68,4.68,0,0,1-.52-.36s0,0,0,0l0,0s-.06-.07-.08-.07h0l-.07-.07a.49.49,0,0,0-.13-.11h0a.86.86,0,0,0-.13-.14l0,0a0,0,0,0,1,0,0h0a.19.19,0,0,0-.1-.1h0a.16.16,0,0,0-.09-.09L23.06,37l-.16-.18a.09.09,0,0,0-.1-.09h-.05s0,0,0,0l-.05.07s-.06,0-.1.1,0,0-.06,0h0a.17.17,0,0,0-.07.13,5.41,5.41,0,0,1-.68.67l-.07,0h0l0,0h0l-.05.06-.1.1-.06.07h0a.15.15,0,0,0-.17.05l0,0L21,38.3l-.1.06-.1,0,0,.07-.14.09a.32.32,0,0,0-.15.06h0s-.06,0-.07,0l-.09,0-.07,0H20.2c-.06,0-.09,0-.06.06h0l-.15,0h-.05s-.06,0-.07,0l-.09,0-.06,0h-.06a.19.19,0,0,0-.13.07l-.05,0h0a.09.09,0,0,0-.07,0l-.09,0-.05,0a1.52,1.52,0,0,0-.33.13l-.2.1-.12.06a.19.19,0,0,0-.13.07l-.05,0h0l-.11.06h0s-.06,0-.09.09h0a2.09,2.09,0,0,0-.41.23l-.13.1-.22.16h0l0,0a1.17,1.17,0,0,0-.16.15h0a.28.28,0,0,0-.18.12l-.06,0,0,0a.22.22,0,0,0-.09.1,1.32,1.32,0,0,0-.17.17,2.23,2.23,0,0,0-.22.21l0,0-.13.17-.08.08a.37.37,0,0,0-.06.1l0,.07a.83.83,0,0,0-.13.18l-.05.06h0l0,.06,0,0s0,0,0,0l0,0a.35.35,0,0,0-.09.11l-.07.1h0l0,0,0,.07a1.26,1.26,0,0,0-.12.22l-.06.15s0,0,0,.07v0a1.72,1.72,0,0,0-.1.22.84.84,0,0,0-.06.26s0,0,0,.07a.07.07,0,0,0,0,.05h0a2.21,2.21,0,0,0,0,.25s-.05,0-.05.08a.09.09,0,0,0,0,.05s0,0,0,0a.35.35,0,0,0,0,.06s0,.06,0,.1l0,.23h3.85l.11-.77a.2.2,0,0,0,0-.07c0-.2.06-.4.08-.56s0-.07,0-.09h0V42.4a.22.22,0,0,0,0-.08l0-.06a.25.25,0,0,0,0-.07h0a.13.13,0,0,0,0-.12l.06-.09,0-.12a.94.94,0,0,0,.08-.15l.11-.16a4,4,0,0,1,.68-.78.28.28,0,0,0,.16-.09s0,0,0,0l.17-.08s0,0,0,0a.23.23,0,0,0,.11-.07s.09,0,.24-.06a1.72,1.72,0,0,0,.33-.14v0l.15-.05.09-.06h.1a.13.13,0,0,0,.12,0s0,0,0,0l.43,0h.06s0,0,.05,0h.05a.19.19,0,0,0,.17,0h0l.31,0,.32,0h0a.3.3,0,0,0,.13,0l.16,0,.45.07H24l.15,0h0c.06.07.14.09.17.07a.12.12,0,0,0,.1,0l.09.06.06,0a.35.35,0,0,0,.15.08l.12,0,.09.05.22.11a.34.34,0,0,0,.14.08l.08,0v0s.07.09.1.09l.05,0,.17.18.31.34a.2.2,0,0,0,.09.16l.1,0,0,.07,0,0,.07.18a.14.14,0,0,0,0,.06l0,.11a.52.52,0,0,0,0,.11l0,.09,0,.08.09.3a.06.06,0,0,0,0,0,.07.07,0,0,0,0,.05s0,.08.05.07l.05.18v.18l0,3,0,2.85s-.05,0-.05.08a.13.13,0,0,0,0,.06v.24l0,.11s-.07,0-.07.07a.43.43,0,0,0,0,.05l-.08.17a.05.05,0,0,0,0,0v0a5.32,5.32,0,0,1-.5.83,2.29,2.29,0,0,1-.41.34l-.07,0-.34.21-.07,0-.24.12-.1.07a.05.05,0,0,0,0,0s-.09.08-.16.16l0,0a1,1,0,0,0-.22.22h0L24,52a.28.28,0,0,0-.11.11,1,1,0,0,0-.19.24,1.21,1.21,0,0,0-.13.25l-.11.18a.52.52,0,0,0-.08.2h0a.18.18,0,0,0-.06.08.13.13,0,0,0,0,.12l-.07.18s0,0,0,.08h0v0a.77.77,0,0,0-.09.2,1.5,1.5,0,0,0-.06.22.06.06,0,0,0,0,0A.08.08,0,0,0,23,54l-.06.2v0s0,0,0,.08v0l0,.22,0,0,0,0v.06a1,1,0,0,0,0,.1l0,0-.05-.21a.15.15,0,0,0,0-.1l-.07-.25h0a.18.18,0,0,0,0-.14l-.06-.16a.11.11,0,0,0,0-.1h0l0-.09,0-.09s0-.09,0-.15l0-.07a.13.13,0,0,0,0-.08h0a1.22,1.22,0,0,0-.07-.17,1.72,1.72,0,0,0-.31-.62l0,0v0l0,0,0,0c0-.07-.06-.1-.08-.1h0a1.91,1.91,0,0,0-.15-.21,2.24,2.24,0,0,0-.79-.66h0A3.3,3.3,0,0,1,19.38,50,4.05,4.05,0,0,1,19,48.75a.19.19,0,0,0,0-.14,7.7,7.7,0,0,1-.06-1v-.69H15.06l0,.93v.06a.1.1,0,0,0,0,.07.11.11,0,0,0,0,.06.22.22,0,0,0,0,.09v.08a.08.08,0,0,0,0,.06.09.09,0,0,0,0,.05s0,0,0,0,0,.1.07.07a2.45,2.45,0,0,0,0,.34s0,0,0,.07a.18.18,0,0,0,.05.12.46.46,0,0,0,0,.1.06.06,0,0,0,0,.05h0l.08.17v0a.16.16,0,0,0,.09.14v.05a.19.19,0,0,0,.07.14l0,.06a3.07,3.07,0,0,0,.38.61h0s.05.07.12.13.11.14.17.2a1.79,1.79,0,0,0,.58.58l.27.23.08.09a.33.33,0,0,0,.13.07l.09.07s0,0,.05,0h0c0,.05.08.1.11.1h0l.12.09.1.08,0,0a.49.49,0,0,0,.19.1h0c0,.05.07.09.1.09h0l.09,0,0,0h0a4.16,4.16,0,0,0,1,.5h0l.11,0,.07,0h0l.05,0h0l.08,0a.16.16,0,0,0,.14.06l.06,0,.06,0h.06v0a.15.15,0,0,0,.09,0c.38.14.77.31.95.4l.09,0s0,0,.06,0a10.36,10.36,0,0,1,.95.79l.29.27a.24.24,0,0,0,.1.1l.06,0,0,0,.08.1,0,0,.1.1h0s0,0,0,0l.06.05V55.1l.06-.08.07-.08h0s0,0,0,0h0a.36.36,0,0,0,.21-.21l.17-.18.48-.45a.47.47,0,0,0,.13-.11l0,0,.25-.2h0l.11-.07.06,0a7.94,7.94,0,0,1,.81-.38,4.21,4.21,0,0,0,.47-.18l.12,0a.09.09,0,0,0,.07,0h0l.14,0h0a.26.26,0,0,0,.16-.09l0,0h0l.05,0h0l.06,0a.31.31,0,0,0,.14-.08l.33-.16.11-.05h0l.1-.06a.1.1,0,0,0,.05,0,.31.31,0,0,0,.1-.05,5,5,0,0,0,.93-.6h0l0,0,.14-.11a.48.48,0,0,0,.22-.15l.07-.09.06,0a.7.7,0,0,0,.16-.17h0L29,51h0l.24-.24h0c.06,0,.11-.09.11-.12h0l.06-.06a.31.31,0,0,0,.12-.2l.05-.06q.15-.14.15-.18a.43.43,0,0,0,0-.07s0,0,0-.06l.05,0c.06-.07.09-.13.08-.17l0-.06,0,0a.66.66,0,0,0,.14-.26v0h0c.07-.07.1-.15.07-.18h0a.19.19,0,0,0,.05-.09.26.26,0,0,0,0-.1v0a.28.28,0,0,0,0-.09l0-.1c.06-.06.09-.14.06-.16a0,0,0,0,0,0,0v0h0a.31.31,0,0,0,0-.08c0-.13.05-.25.07-.38v0a.51.51,0,0,0,0-.18c0-.15,0-.29,0-.43v-.42l0,0,.19.16.13.1h0l.11.12a.24.24,0,0,0,.15.08l.06,0a.28.28,0,0,0,.13.07l.06,0c.06.06.13.09.16.06h0a3.67,3.67,0,0,0,1,.11,3.9,3.9,0,0,0,1-.11h0a.11.11,0,0,0,.11,0,0,0,0,0,0,0,0l.16-.06s0,0,0,0a2,2,0,0,0,.52-.34h0l0,0,0,0,.13-.11h.09v.35a1.8,1.8,0,0,0,0,.22.08.08,0,0,0,0,.05.13.13,0,0,1,0,.1s0,0,0,0,0,0,0,0,0,.09.06.08a2.56,2.56,0,0,0,.05.27v0s0,0,0,.08a.19.19,0,0,0,.08.14l0,.06a.09.09,0,0,0,0,.05s0,0,0,0,0,.09,0,.08a1,1,0,0,0,.06.16v0l0,0,0,0h0S35,49,35,49l0,.05a.19.19,0,0,0,.05.09.13.13,0,0,0,0,.06.19.19,0,0,0,.1.16h0v0h0c0,.05,0,.08,0,.08l0,0a.18.18,0,0,0,.07.12,1.14,1.14,0,0,0,.06.14.62.62,0,0,0,.08.12l.23.48.25.26a.63.63,0,0,0,.17.2h0l.08.1.18.17.06.06.05.06a1.42,1.42,0,0,0,.19.18l0,0,.08.09.18.17v0a.27.27,0,0,0,.1.09h0a.24.24,0,0,0,.15.09h0a.58.58,0,0,0,.14.12l.16.13,0,0,.12.08h0s.07.1.1.1,0,0,0,0l.15.1,0,0c.06.06.12.09.15.08h0s.08.1.1.1a0,0,0,0,0,0,0,1.16,1.16,0,0,0,.22.1l.11.06v0a.11.11,0,0,0,.08,0l0,0h0l.12.05A.56.56,0,0,0,39,53h0a.19.19,0,0,0,.09,0l.06,0h0l.05,0h0l.1,0,.08,0s0,0,0,0a.11.11,0,0,0,.1,0h0l.15.05c.06,0,.12.07.15,0a.08.08,0,0,0,.07,0l.19.05a0,0,0,0,0,0,0,.11.11,0,0,0,.13,0h.07l.27.06a0,0,0,0,0,0,0,.17.17,0,0,0,.14,0h0a.21.21,0,0,0,.11,0l.41.05a0,0,0,0,0,0,0,.11.11,0,0,0,.13,0h0a.3.3,0,0,0,.16,0,.11.11,0,0,0,.12,0l.95,0,.19,0,.1,0,.46-.08a.2.2,0,0,0,.11,0,.13.13,0,0,0,.12,0,0,0,0,0,0,0,0l.25-.06h.12a.23.23,0,0,0,.16-.08l.12,0a.11.11,0,0,0,.11,0h0a2.34,2.34,0,0,0,.65-.2l.15-.06h0l.19-.08h0a.68.68,0,0,0,.26-.13l.15-.07a.19.19,0,0,0,.14-.07l.09,0a5.7,5.7,0,0,0,.94-.6.27.27,0,0,0,.08-.07l.1-.08a.24.24,0,0,0,.16-.09s0,0,0,0h0c.06,0,.11-.08.11-.11s.1-.08.1-.1h0c.1-.1.2-.19.29-.29l.17-.17h0c.07,0,.12-.09.12-.12h0l.06-.06a.36.36,0,0,0,.12-.2l.06-.07m-6-28.3h0m-.6,18.32.1,0h-.11s0,0,0,0m.43,1.24.6,0v0a.14.14,0,0,0,.11,0h.07l.16.08a.6.6,0,0,0,.25.12,4.28,4.28,0,0,1,1,.73l.23.23a.31.31,0,0,0,.1.15h0a1,1,0,0,0,.17.15l0,0s0,0,0,.06a.18.18,0,0,0,.1.15h0l.26.54.3.63v0c0,.06,0,.08.05.07l0,.07,0,.09s0,0,0,.06v0s0,0,0,0a.21.21,0,0,0,.07.14l0,.15h0a.13.13,0,0,1,0,.1s0,.08,0,.08v0c0,.11,0,.22.05.32v.15s0,.07,0,.07a6.75,6.75,0,0,1,0,1.68s0,0,0,.08v.14c0,.1,0,.21-.05.31v.06a.1.1,0,0,0,0,.1L45.8,49s0,0,0,.08a.08.08,0,0,0,0,.06h0l-.07.14s0,0,0,.08v.07l-.28.58-.23.49a.05.05,0,0,0,0,0l-.07.1h0l-.06.1a.36.36,0,0,0-.08.09v0a.06.06,0,0,0-.06,0,.23.23,0,0,0-.07.14l-.32.32a4.57,4.57,0,0,1-.39.35.24.24,0,0,0-.11.09h0l-.28.2-.22.12,0,0-.27.13a.1.1,0,0,0-.07,0H43a.16.16,0,0,0-.11,0l-.54,0-.48,0h-.32l-.13-.06s0,0-.07,0h0L41,52.12,40.74,52l-.05,0a4.82,4.82,0,0,1-1.95-2.48,2.12,2.12,0,0,0-.14-.4l-.09-.28a.12.12,0,0,0,0-.08.09.09,0,0,0,0-.11s0,0-.05,0l0-.17h0v0a.19.19,0,0,0,0-.15.14.14,0,0,0,0-.11.14.14,0,0,0,0-.11h0V46.14h0a.17.17,0,0,0,0-.12.14.14,0,0,0,0-.11h0a.21.21,0,0,0,0-.18l.06-.16h0a.1.1,0,0,0,0-.12.07.07,0,0,0,0-.06l.15-.42c.06-.18.13-.38.21-.56l0-.07a3.88,3.88,0,0,1,.2-.44h0a.24.24,0,0,0,.08-.13l0-.06a.17.17,0,0,0,.07-.09h0l.15-.22s0,0,0,0A4.14,4.14,0,0,1,41.12,42a1.31,1.31,0,0,0,.25-.09l.19-.08h0Z" transform="translate(15.35 -1.72)"/><path class="cls-1" d="M8.44,30.65v3.74l0,0,.07,1.3a1.09,1.09,0,0,0,0,.18H8.44v1.93h0a3.32,3.32,0,0,0,0,.89l0,0v5.75h0v.4a2.17,2.17,0,0,0,0,.56h0a.63.63,0,0,0,.21-.1L9.37,45a.78.78,0,0,0,.2-.09l.66-.3h0a.63.63,0,0,0,.26-.12l.16-.07h0l.05,0h0l.07,0a.37.37,0,0,0,.13-.07h0l0,0,.1-.05h0a.79.79,0,0,0,.29-.15l0,0,.07,0h0l.05,0h0l.07,0a.29.29,0,0,0,.13-.08l.07,0,.08,0h0a.55.55,0,0,0,.24-.09s.05,0,.07-.07h0a.37.37,0,0,0,0-.12.24.24,0,0,0,0-.09h0V41.83h0l0-1.08V39.61h0V36.72h0v-.35l.05-.71h0V34.5h0V32.57h-.05c0-.47,0-.88,0-1.08h0v-1.1c0-.39,0-.73,0-.93h0v-1.9h0v-.77h0V23.35h0l0-.35h0v-.9c0-.41,0-.77,0-.86a2.81,2.81,0,0,0,0-.3c0-.05,0-.07,0-.08l.05-6.33,0-6.45h0a.09.09,0,0,0,0-.11.1.1,0,0,0,0-.12h0a.22.22,0,0,0,0-.16.3.3,0,0,0,.05-.1.26.26,0,0,0,0-.13l.05-.1c0-.07,0-.14.05-.19l0,0a3.67,3.67,0,0,1,.56-1A3.79,3.79,0,0,1,14,5.48h0l0,0h0l.07,0h0l.1-.06.07-.06h0a.2.2,0,0,0,.15-.09l0,0h0c.07,0,.12-.09.12-.12l0,0a.8.8,0,0,0,.16-.15A.25.25,0,0,0,15,4.76l0-.06,0,0,.14-.22h0a.26.26,0,0,0,.07-.14,4.37,4.37,0,0,0,.26-.53.64.64,0,0,0,.13-.24v0l0-.07a.31.31,0,0,0,0-.08h0a.14.14,0,0,0,0-.11.36.36,0,0,0,0-.11l0-.06h0a.1.1,0,0,0,0-.09,1,1,0,0,0,.05-.17l0-.08a.18.18,0,0,0,0-.1L16,2.37h0a.11.11,0,0,0,0-.1L16.12,2l0,0V1.87h0V1.78c0-.05,0-.07,0-.05h0a.1.1,0,0,0-.1.08s0,0,0,0l-.06.08,0,0h0s0,0,0,0l0,0-.1.08a.27.27,0,0,0-.1.11l0,0-.08.08-.09.08-.07.08-.14.13s0,0,0,0-.28.24-.42.34l0,0-.23.15h0l-.06,0a4,4,0,0,1-.59.28l-.24.09-.25.1-.16.06h0s-.06,0-.07,0l0,0-.13,0h-.05s-.06,0-.07,0a.4.4,0,0,0-.12.07h0s-.07,0-.17.08h0a1.26,1.26,0,0,0-.23.08h0a.19.19,0,0,0-.15.08l-.05,0-.1.06h0a.43.43,0,0,0-.17.09h0s-.07,0-.1.09h-.09s-.08,0-.12.12h0l-.13.08h0s-.07,0-.1.09h0L11,4.88l0,0s-.09,0-.15.1l-.13.08h0s-.08,0-.11.1h0l-.15.15,0,0a.1.1,0,0,0-.07.05l-.09.08-.08.05,0,0s0,0-.12.08-.06,0-.09.08,0,0-.05,0l-.07.08A.3.3,0,0,0,9.64,6a.16.16,0,0,0,0,.08l-.4.4-.12.24h0A.23.23,0,0,0,9,6.85l0,0,0,.06-.07.11h0l0,0,0,0s0,0,0,.08v0a.13.13,0,0,0,0,.06.14.14,0,0,0,0,.1v0l-.05.07a.26.26,0,0,0,0,.1l-.15.32V8.2s0,0,0,.07v.05h0V8.5s0,0,0,.06a.35.35,0,0,0,0,.06v.17s0,0,0,.06,0,.08,0,.08l0,7.27,0,8.27h0v0a6.21,6.21,0,0,0,0,.69v.93h0v.47h0v3.47h0c0,.13,0,.34,0,.58Zm3.81,6.07v0Z" transform="translate(15.35 -1.72)"/><path class="cls-1" d="M16.11,7.6a.17.17,0,0,1,0,.05s-.05,0-.07.11l0,0s0,0,0,.08v0s0,0,0,0l-.06.16s-.05,0-.05.08a0,0,0,0,0,0,0l0,.06,0,.12s0,0,0,.08v0l-.07.19s0,0,0,.08h0v0l0,.46s-.06,0-.06.07a.43.43,0,0,0,0,.05.43.43,0,0,0,0,0,.08.08,0,0,0,0,.06.28.28,0,0,0,0,.1V10s0,0,0,0h0l0,.44,0,.14a.06.06,0,0,1,0,0s0,0,0,0,0,.08,0,.08l.07.3v.07h0l0,0,0,.05v.14l0-.06,0,0s0,0,0,0a.56.56,0,0,0,0,.12.06.06,0,0,0,0,.06h0l0,0,0,.06v.14l0-.06v0a.44.44,0,0,0,.06.1s0,0,0,0l0,0v.05c0,.05,0,.08,0,.08l0,.05,0,.08v.06h0a.17.17,0,0,0,.06.12l.08.12,0,.12v0a.17.17,0,0,0,.08.14l0,0a.59.59,0,0,0,.09.18h0a.2.2,0,0,0,.08.14l.13.25.25.27a.18.18,0,0,0,.05.07.13.13,0,0,0,0,.05.18.18,0,0,0,.08.09.58.58,0,0,0,.14.12l0,0h0l0,0s.07.1.1.1h0l0,0,.11.11a1.46,1.46,0,0,0,.23.22v0a.27.27,0,0,0,.08.1l.14.11.05,0a.08.08,0,0,0,0,0s.07.1.1.1h0l.09,0h0l0,0h0a.19.19,0,0,0,.09.09h0a.23.23,0,0,0,.16.1h0l0,0s.06.08.09.08h0l.06,0,.12.09s.07.08.1.08h0l0,0,0,0c0,.05.07.1.1.1h0l.07,0,.1,0,.09.06.05,0v.05l.05,0,.1.06h0l0,.1-.35,0-.2,0H19s-.07,0-.07,0l-.1,0-.07,0h-.1a1.19,1.19,0,0,0-.31.09l-.16.08-.05,0h0s-.07,0-.07,0l-.16.07H17.8a1.23,1.23,0,0,0-.31.16l-.08,0a1.6,1.6,0,0,0-.43.27h0a.3.3,0,0,0-.08.08l-.14.1h0a.23.23,0,0,0-.12.08l-.09.08a.46.46,0,0,0-.07.07l0,0c0,.05-.06.08-.06.1l-.11.15,0,.05,0-.06v.12l-.05.07s0,0-.05,0l0,.05h0l0,.06s-.05,0-.09.1a.16.16,0,0,0,0,.09.05.05,0,0,0,0,0s0,0,0,.06a.16.16,0,0,0,0,.09s0,0,0,0a.15.15,0,0,0,0,.06.21.21,0,0,0,0,.12l0,.09v0l0,.07s0,0,0,.08v0l0,0,0,.06c0,.05,0,.09,0,.12a.15.15,0,0,0,0,.07v0l0,.12s0,0,0,0l0,.05s0,0,0,.08h0v0h0v0h0c0,.13-.05.24-.06.32h0s0,0,0,.08h0v0s0,0,0,0a.2.2,0,0,0,0,.05v.05h0v1.88l.05,0,0,.67,0,.89h0v3.36h0a7,7,0,0,0,0,.77v1h.05v0l.06.09,0,0,0,0h0s0,0,0,0,0,0,0,0h0a.07.07,0,0,0,0,.07l0,.06a.22.22,0,0,0,.05.08.13.13,0,0,0,0,.06c0,.05,0,.07,0,.08h0v.06a.86.86,0,0,0,.07.1l0,.07,0,.05a.24.24,0,0,0,0,.08v0a.19.19,0,0,0,.1.15l0,0,0,.08a.86.86,0,0,0,.07.1l0,0,.05.06h0a1,1,0,0,0,.09.17l.11.15h0a.24.24,0,0,0,.11.13s0,0,0,0a.24.24,0,0,0,.08.09l.12.1.05.05.59.63h0a.19.19,0,0,0,.09.09h0a.24.24,0,0,0,.13.09l.18.12a.13.13,0,0,0,.08.07h0a.21.21,0,0,0,.14.1l.38.25.06,0h0l0,0,0,0,.32.12,0,0s.06.07.09.07h0l.09,0,.1,0a.19.19,0,0,0,.09,0l.06,0s0,0,.08,0l.1.06.17.09.05,0h0a.09.09,0,0,0,.06,0l.09,0c.06.05.13.08.16.05h0l.09.06.05,0V33L20,33a.15.15,0,0,0,.09,0h0l.12.07v.08l.08,0h0l.11,0,0,0v.07l.08,0h0l.25.09h0a.41.41,0,0,0,.13.08l.22.1h0l.21.18,0,0,.06,0a.18.18,0,0,0,.09,0l0,0,.22.15a.06.06,0,0,0,0,0s.08.1.11.1h0a.17.17,0,0,0,.06.06l.11.11a1.29,1.29,0,0,0,.23.24l.2.2h0l.09.07,0,0a.56.56,0,0,0,.09.17.14.14,0,0,0,.08.12A.1.1,0,0,0,23,35h0l.05-.05a.71.71,0,0,0,.23-.28c.19-.19.42-.44.59-.63A.19.19,0,0,0,24,34l.06,0h0a.26.26,0,0,0,.17-.09l0,0h0a.28.28,0,0,0,.11-.11l.05,0,0,0h0a.22.22,0,0,0,.15-.08l.07,0a5.12,5.12,0,0,1,.74-.36l.1,0,.13,0,.06,0a.14.14,0,0,0,.09,0v0l.12,0H26a.23.23,0,0,0,.17-.1h0a0,0,0,0,0,.07,0l0,0h0l.07,0a.19.19,0,0,0,.09,0h0a.6.6,0,0,0,.25-.12l.18-.07a.24.24,0,0,0,.11-.06l.08,0a1.28,1.28,0,0,0,.25-.14l.09-.08.09,0a.15.15,0,0,0,.09-.06l.09,0,0,0h0a.17.17,0,0,0,.09-.06.3.3,0,0,0,.1-.09l.1-.06,0,0,.11-.06a.3.3,0,0,0,.1-.09h0l.08-.06a.26.26,0,0,0,.17-.09.17.17,0,0,0,0-.05l.05,0,0,0,.09-.08h0a.43.43,0,0,0,.22-.15l.06-.08h0c.06,0,.11-.08.11-.11h0a.6.6,0,0,0,.08-.08l.05,0a1.69,1.69,0,0,0,.24-.24.22.22,0,0,0,.11-.11h0s0,0,0,0h0a.22.22,0,0,0,.06-.12l.06-.08s0,0,0-.05h0c.08-.05.12-.1.1-.13h0l.08-.1a.47.47,0,0,0,.09-.12h0a.5.5,0,0,0,.09-.18l0,0c.06,0,.09-.09.08-.11l0-.06a1.06,1.06,0,0,0,.16-.37s0,0,0,0a.22.22,0,0,0,.05-.08l0-.07h0a.15.15,0,0,0,0-.09,1.45,1.45,0,0,0,.06-.19c0-.06.05-.11,0-.13h0a1.87,1.87,0,0,0,0-.25s0,0,0,0a.22.22,0,0,0,0-.1v0a.23.23,0,0,0,0-.16.1.1,0,0,0,0-.12h0c0-.36,0-.79,0-1.28V25.15h0c0-.24,0-.7,0-1.24s0-1,0-1.29h0V20.33h0a.15.15,0,0,0,0-.08s0-.06,0-.07-.09,0-.15.07l0,0,0,0a.13.13,0,0,0-.06.12v0a4.18,4.18,0,0,0-.39.37,3.3,3.3,0,0,0-.27.3l-.06.08h-.05s0,0-.07,0h0a0,0,0,0,1,0,0l0,0h0a.13.13,0,0,0-.05.06.46.46,0,0,0-.1.1l-.13.08-.13.08-.1.06,0,0c-.27.16-.7.39-1.11.59l-.59.3h-.05s-.06,0-.07,0l-.12.07,0,0,0,0h0a.1.1,0,0,0-.07,0h0s0,0,0,0l0,.06h0a.28.28,0,0,0-.07.2v.14l0,0c0,.3,0,.83,0,1.47l0,1.33h0v2.71h0v.1c0,.06,0,.12,0,.18a.13.13,0,0,0,0,.06h0a1.3,1.3,0,0,1,0,.13s0,0,0,0-.06,0,0,.13v0a.36.36,0,0,1,0,.1l0,.07v.05s0,0,0,.08h0v0h0s0,0,0,0a.22.22,0,0,0,0,.08l0,.07s0,0,0,.08v0c-.07.1-.18.28-.29.46l0,0a.12.12,0,0,0,0,.08l-.13.2-.14.15,0,0-.23.15a.19.19,0,0,0-.11.07l-.18.12-.07,0a.46.46,0,0,0-.14.1v0l-.21.07h0s-.07,0-.07,0h0a.41.41,0,0,0-.13.08s0,0-.07,0a.1.1,0,0,0-.07,0l-.11.06h-.21s-.06,0-.07,0h0l-.4.07h-.09s-.07,0-.08,0l-.46.08h-.36l-.07,0a.08.08,0,0,0-.06,0h0l-.07,0h0s-.07,0-.08,0l-.06,0s0,0-.07,0H22a1.57,1.57,0,0,1-.32-.07s0,0-.07,0h0l-.19-.06-.1,0-.13,0-.37-.16-.16-.07-.11-.06,0,0a.28.28,0,0,0-.14-.1l-.28-.26-.32-.33a.19.19,0,0,0-.07-.11l-.05-.05L19.6,30h0s0,0,0,0a.74.74,0,0,0-.12-.16.79.79,0,0,0,0-.2v0a.13.13,0,0,0,0-.09l-.08-.15a.12.12,0,0,0,0-.1.14.14,0,0,0,0-.11s0,0,0,0l0-.06a.35.35,0,0,1-.05-.08.19.19,0,0,1,0-.08.24.24,0,0,0,0-.12h0a.17.17,0,0,0,0-.1.14.14,0,0,0,0-.09,3.69,3.69,0,0,0,0-.67v-.08l0,0V26.58c0-.47,0-.88,0-1.09h0V24.39c0-.32,0-.62,0-.82v-.11h0v-2h0v0a5.29,5.29,0,0,0,0-.63V18.6l0,0,0-.11V18.4h0a.09.09,0,0,0,0,0,.15.15,0,0,0,0-.1.14.14,0,0,0,0-.07l.07-.07h.06l0-.22a.23.23,0,0,0,0-.12l.06-.09,0-.07,0,0a.09.09,0,0,0,0-.1l.06-.1,0-.05s0,0,0,0a.36.36,0,0,0,.07-.1l0-.08h0c.09-.05.14-.11.12-.13a.08.08,0,0,1,0,0h0l.08-.06.06-.05.18-.14a.67.67,0,0,0,.12-.06l.11-.05.05,0h0l.11-.06h1.17v0h.52a.09.09,0,0,0,.07,0h.25l1,0H24a.13.13,0,0,0,.12,0h0s.05,0,.05,0l.12,0h.09a.1.1,0,0,0,.12,0h0c.07,0,.16,0,.18,0a0,0,0,0,0,0,0,1.36,1.36,0,0,0,.3,0h.05a.17.17,0,0,0,.12,0h0l.07,0,.1-.06a.09.09,0,0,0,.1,0,.28.28,0,0,0,.13,0,2.6,2.6,0,0,0,.49-.17l.19-.08a.1.1,0,0,0,.07,0h0l.07,0a.41.41,0,0,0,.11-.07l.17-.06h0a.23.23,0,0,0,.17-.1h0l.22-.13h0l0,0h0a.23.23,0,0,0,.09-.06.22.22,0,0,0,.07-.06h0a.28.28,0,0,0,.18-.09l0,0,0,0,.06,0h0a.1.1,0,0,0,.07,0v0a.36.36,0,0,0,.12-.09h0l0,0h0a.23.23,0,0,0,.16-.1l0-.05.05,0a.82.82,0,0,0,.16-.14l.18-.16h0c.05,0,.14-.08.23-.17a.23.23,0,0,0,.07-.07l0,0c0-.06.06-.1,0-.12L29,14l.05-.06h0c.06,0,.09-.08.09-.11l0,0a.71.71,0,0,0,.16-.16h0a.2.2,0,0,0,.07-.15l0,0a.29.29,0,0,0,.08-.08c.07-.05.11-.1.1-.13l0-.07h0l.11-.15a.05.05,0,0,0,0,0l.3-.46a0,0,0,0,0,0,0l0-.05a.41.41,0,0,0,0-.09l.08-.13.06,0,0,0h0a.25.25,0,0,0,.18-.1v0a.94.94,0,0,0,.18-.12l.2-.15h.11a.24.24,0,0,0,.13-.05l.73,0,.68,0,0,0,.9,0,.43,0h0a.12.12,0,0,0,.14,0h0a.22.22,0,0,0,.16,0l.1.07h.05s0,0,0,0a.14.14,0,0,0,.11,0,.2.2,0,0,0,.09.06l.08,0h0v0l0,0a10.57,10.57,0,0,0,0,1.34s0,.07,0,.13v.18l0-.06h0l0,0a.14.14,0,0,1,0,.06v0a.2.2,0,0,0,0,.09.2.2,0,0,0,0,.12V14l0-.1v0a.43.43,0,0,0,0,.18.36.36,0,0,0,0,.1s0,0,0,0a.08.08,0,0,0,0,.08l0,.07,0,.06v0a1.62,1.62,0,0,0,.16.35,2.68,2.68,0,0,0,.17.34,2.85,2.85,0,0,0,.21.3l.08.11.15.18h0a.19.19,0,0,0,.1.15h0a.67.67,0,0,0,.17.15l0,0h0a.62.62,0,0,0,.17.17l0,0a0,0,0,0,1,0,0s0,0,0,0a.24.24,0,0,0,.1.1h0a.25.25,0,0,0,.09.09h0s.07.09.1.09h0s0,0,0,0l.08,0,.15.12a.12.12,0,0,0,.05.05h0l.24.16.08.05h0c0,.05.07.1.1.1h0a.18.18,0,0,0,.07.05l.08,0,0,0s.07.09.1.09h0l.06,0,.08.08,0,0a.17.17,0,0,0,.06.06v0l.36.17s.06.06.08.06a0,0,0,0,0,0,0h0l.13.07.3.14a.38.38,0,0,0,.18.08h0a1.89,1.89,0,0,0,.33.13c.06.05.12.07.14,0h0l.09.06,0,0v.06l.07,0h.08l.09.06.08,0h0a.11.11,0,0,0,.11,0l.09.06.07,0h0a.11.11,0,0,0,.1,0l0,0,.09.07.16.1h0l.51.31s.06.08.09.08h0c.06.06.12.08.15.06v0s.08.09.11.09l.07.07.37.41.18.21a.68.68,0,0,0,.14.18s0,.05.05.06l-.05,0h.12l0,0h0c.05,0,.09.05.09,0a.18.18,0,0,0,0-.08h0a.29.29,0,0,0,.08-.07v0l.07-.06a1.26,1.26,0,0,0,.16-.15c.07,0,.1-.1.1-.12l.17-.17,0,0c.18-.17.28-.27.33-.33h0a.27.27,0,0,0,.11-.1.22.22,0,0,0,.07-.06.38.38,0,0,0,.09-.09l.06,0L44,19l0,0,.09-.09.13-.11,0,0,.18-.08s0,0,0,0a.56.56,0,0,0,.14-.1,1.92,1.92,0,0,0,.73-.22l.11,0a.07.07,0,0,0,.06,0l.17-.06h0a.27.27,0,0,0,.16-.08l.06,0h0l0,0h0l.07,0a.43.43,0,0,0,.14-.08l.16-.07.17-.1.17-.09.18-.09,0,0,.11-.07.07-.05.2-.12.32-.21a4.2,4.2,0,0,0,.68-.5h0c.06,0,.1-.08.1-.11h0l0,0a1.17,1.17,0,0,0,.16-.16.2.2,0,0,0,.09-.1l0-.05a.7.7,0,0,0,.15-.14s.09-.08.09-.1l0,0h0a.58.58,0,0,0,.16-.16.22.22,0,0,0,.11-.11.27.27,0,0,0,.06-.1l.11-.15h0c.06-.08.12-.18.18-.27a.09.09,0,0,0,0-.05h0s0,0,0-.05l0,0,.14-.36a.47.47,0,0,0,.05-.14l0-.07,0-.06a.25.25,0,0,0,0-.07h0a.13.13,0,0,0,0-.12.21.21,0,0,0,.06-.1l0-.06.07,0,0-.1h0s0,0,0,0h0a.12.12,0,0,0,0-.1l.06-.09,0-.08h0a.11.11,0,0,0,0-.11.61.61,0,0,0,0-.15v-.29H46.35l-.07.65v0s0,0,0,.14v.08a.07.07,0,0,0,0,.05v0a3,3,0,0,1-.09.41v0a7,7,0,0,1-.32.87l0,0-.07.11h0v0a.61.61,0,0,0-.07.1l0,.05a.28.28,0,0,0-.11.11l0,0L45.4,16a.22.22,0,0,0-.09.1l0,0-.06,0a.16.16,0,0,0,0,.07l-.08.08-.33.17-.31.14-.06,0-.34.14-.21.08h0c-.06,0-.09,0-.08,0l-.16.06H43.4l-.06,0h-.09s-.07,0-.08,0h0l-.33,0-.58,0H42L41.78,17s0-.05-.08-.05h-.09l-.2-.05-.13,0a.19.19,0,0,0-.1,0l-.27-.06s0,0-.07,0h-.05a.2.2,0,0,0-.22-.09l-.07-.05-.07,0h0l-.09-.06-.06,0s0,0,0,0h0l-.12-.12-.14-.09a.2.2,0,0,0-.13-.09h0a2.41,2.41,0,0,0-.31-.25s0-.09,0-.14h0l0,0v0a.16.16,0,0,0-.09-.09v0a.36.36,0,0,0-.06-.11l0,0v0a.69.69,0,0,0-.07-.13l0-.06,0-.07-.07-.24-.14-.41a.13.13,0,0,0,0-.06.1.1,0,0,0,0-.12h0v0a6,6,0,0,1,0-.85v-.69h0v-.86c0-.33,0-.63,0-.83v-.09h0V9.64c0-.45,0-.86,0-1.08l0,0,0-.06h0V8.4a.19.19,0,0,0,0-.08.22.22,0,0,0,0-.08l0,0c.08-.06.11-.11.08-.13a.13.13,0,0,0,0-.06h0a.08.08,0,0,0,0-.09.11.11,0,0,0,0-.11.35.35,0,0,0,.06-.09l0-.06,0,0a.17.17,0,0,0,0-.1l.06-.1,0-.07h0a.11.11,0,0,0,0-.08.83.83,0,0,0,0-.12,4.36,4.36,0,0,1,.84-1.09A.19.19,0,0,0,40,6H40l.09-.06.09,0a.3.3,0,0,0,.13-.07l.07,0,.12-.09.12-.06,0,0,.1-.06.12-.07A.23.23,0,0,0,41,5.48h0s.05,0,.05,0h0l.06,0,0,0a.27.27,0,0,0,.11-.1l.09-.1h0A.15.15,0,0,0,41.41,5h0s0,0,0,0l0-.06,0-.08h0c.09-.05.13-.11.12-.14l0-.06,0-.1a.15.15,0,0,0,0-.09l0,0,0-.11a1,1,0,0,0,.08-.15A1.16,1.16,0,0,0,41.94,4,.34.34,0,0,0,42,3.89l0-.08h0a.13.13,0,0,0,0-.12h0a.22.22,0,0,0,0-.08s0,0,0-.05h0v0h0a.19.19,0,0,0,0-.08,1.15,1.15,0,0,0,.06-.21h0a.1.1,0,0,0,0-.09l0-.09V3a.25.25,0,0,0,0-.07h0a.09.09,0,0,0,0-.1l.1-.3a.08.08,0,0,1,0,0l0-.07h0l0,0v.09a.32.32,0,0,0,0,.09,0,0,0,0,0,0,0,.08.08,0,0,0,0,.08l0,.07a.35.35,0,0,0,0,.08l0,0,0,.06a.06.06,0,0,0,0,0l.07.22h0s0,0,0,0a.43.43,0,0,0,0,.05.18.18,0,0,0,.09.14h0a0,0,0,0,1,0,0v0c0,.05,0,.07,0,.08l.06.15v.05a.19.19,0,0,0,.09.15h0s0,0,0,0a.08.08,0,0,0,0,.08l0,.06a.26.26,0,0,0,.07.1l0,.1a.21.21,0,0,0,0,.06h0l.1.19a1.7,1.7,0,0,0,.19.27.19.19,0,0,0,.09.14l0,0,0,0,.05.06h0l.09.1.22.21,0,0a.14.14,0,0,0,.1.09h0l.07,0,.1,0,.09.06.09,0,0,.07,0,0,.09.05.14.06,0,0L45,6h0a.17.17,0,0,0,.14.06l0,0,.21.22.31.28h0v0h0a.2.2,0,0,0,.09.16l0,0,0,.07a.41.41,0,0,0,.07.11l0,.07a.23.23,0,0,0,.06.11l0,.1.06.08a.14.14,0,0,0,0,.07s0,.07,0,.07l0,.07a.22.22,0,0,0,0,.08.15.15,0,0,0,0,.07c0,.06,0,.09.06.07s0,.28,0,.45a.07.07,0,0,0,0,0s0,.05,0,.06a.17.17,0,0,0,0,.1v.18l0-.09c0,.14,0,.26.06.34h0v1.2h0v0h3.86V9.39c0-.2,0-.37,0-.5a.43.43,0,0,0,0-.05v0a.14.14,0,0,0,0-.09.1.1,0,0,0,0-.12h0a.26.26,0,0,0-.06-.15.17.17,0,0,0,0-.1.13.13,0,0,0,0-.14l0-.06A.15.15,0,0,0,50,8,.12.12,0,0,0,50,8l0-.07H50v0a.44.44,0,0,0-.08-.11v0s0,0,0,0a.75.75,0,0,0-.07-.15.56.56,0,0,0,0-.12l-.11-.24h0a.12.12,0,0,0,0-.05c-.12-.19-.24-.39-.33-.51l0,0a.22.22,0,0,0-.07-.07h0a.29.29,0,0,0-.07-.08h0l0,0-.15-.15h0c0-.06-.08-.1-.11-.1h0l0,0A.88.88,0,0,0,48.61,6V6c0-.06-.08-.1-.11-.1h0l0,0a.7.7,0,0,0-.14-.15v0s-.07-.09-.1-.09h0a.2.2,0,0,0-.15-.09h0l-.14-.12a.17.17,0,0,0-.09-.07h0l-.11-.08h0l-.1-.08,0,0-.07,0h0L47.37,5l0,0a.14.14,0,0,0-.09-.06h0a.18.18,0,0,0-.07,0l-.08,0v0a.26.26,0,0,0-.19-.1h0c0-.05-.07-.08-.09-.08l0,0-.07,0a1.6,1.6,0,0,0-.19-.11l-.1,0-.16-.08s0,0-.08,0h0a.25.25,0,0,0-.2-.1l-.07,0h0l-.07,0-.1-.07,0,0V4L45.5,4h0l-.06,0L45.32,4h0V3.92l-.06,0h0l-.06,0L45,3.9l-.05,0V3.82l-.06,0h-.1l-.08-.05-.12,0-.15-.09-.22-.1h0a1.11,1.11,0,0,0-.15-.12h0A.15.15,0,0,0,44,3.36s0,0,0,0l-.15-.09v0s-.07-.09-.1-.09h0a.25.25,0,0,0-.09-.09h0c0-.06-.07-.1-.1-.1l0,0-.2-.21-.06-.05s-.07-.09-.08-.09h0A.21.21,0,0,0,43,2.53h0s0,0,0,0a.15.15,0,0,0-.08-.09s0,0-.06-.06h0a.13.13,0,0,0-.08-.08h0l0,0-.07-.08h0s0,0-.05,0h0A.23.23,0,0,0,42.5,2h-.08s0,0,0,0l0,0h0a.17.17,0,0,0-.06.11h0s0,0,0,.05a.68.68,0,0,0-.11.12l0,0h0s-.08.06-.14.13l-.19.17-.5.47a.2.2,0,0,0-.15.1h0a.25.25,0,0,0-.1.12h0l-.11,0-.05,0s-.08,0-.12.1h0a.19.19,0,0,0-.14.07l-.15.07-.1.05a.25.25,0,0,0-.13.06l-.07,0s-.07,0-.07,0l-.2.06h-.11a.17.17,0,0,0-.13.08l-.07,0h0s-.06,0-.07,0h0l-.17.07h-.08s0,0-.08.07l-.06,0h0a.09.09,0,0,0-.07,0l-.11,0-.29.12a.44.44,0,0,0-.19.1.82.82,0,0,0-.25.14l-.06.06h0a.15.15,0,0,0-.08,0l-.08,0h0s-.06,0-.09.07l-.06,0a.13.13,0,0,0-.13.07,0,0,0,0,0,0,0l-.13.07V5l-.09.09-.21.16a.14.14,0,0,0-.12.06l0,.06-.09.09-.2.17h0a.19.19,0,0,0-.14.06.08.08,0,0,0,0,0h0l-.07,0a.09.09,0,0,0,0,.06L36.36,6a.32.32,0,0,0-.1.1.28.28,0,0,0-.07.09l0,0h0L36,6.27a.3.3,0,0,0-.1.18l-.17.19a.31.31,0,0,0-.08.1s-.06,0-.1.1a.11.11,0,0,0,0,.07L35.49,7l0,0-.06.1h0l0,.08-.05.06h0l0,0,0,.09a.37.37,0,0,0-.07.2l0,.08a.49.49,0,0,0,0,.11s0,0,0,.08h0v0l0,0a.15.15,0,0,0,0,.12.14.14,0,0,0,0,.07v0c0,.06,0,.12-.05.18s0,0,0,.12V8.6h0s0,0,0,.06h0c0,.11,0,.21,0,.31s-.05,0-.05.07,0,.07,0,.08a2.12,2.12,0,0,0,0,.33v.24s0,.08,0,.13a.53.53,0,0,0,0,.12l0,0-.12-.1-.05,0-.09-.08,0,0a.19.19,0,0,0-.15-.1h0l0,0s-.06-.07-.08-.07h0l-.09,0-.05,0s0,0-.08,0h0a.22.22,0,0,0-.21-.09h0l-.05,0H33l0,0h-.11v0h-.77l-.06,0h-.17l-.06,0a.09.09,0,0,0-.07,0h0l-.15.07h0s-.06,0-.07,0l-.12.07h0a.37.37,0,0,0-.11.1L31,9.72l-.07,0,0,0h0l-.05,0,0,0a.49.49,0,0,0-.08.12.24.24,0,0,1-.11.06h0a.14.14,0,0,0,0-.07.17.17,0,0,0,0-.1c0-.07,0-.15,0-.24a3.11,3.11,0,0,0,0-.32.16.16,0,0,0,0-.1.15.15,0,0,0,0-.13h0l0-.07-.06-.09a.21.21,0,0,0,0-.11,0,0,0,0,0,0,0h0l0-.07,0-.15h-.07l-.06-.14a.11.11,0,0,0,0-.11h0l0-.07a.21.21,0,0,0-.06-.1.13.13,0,0,0,0-.12h0l0-.07-.06-.09v0s0,0,0,0l.05-.12-.08,0h0A2.92,2.92,0,0,0,30,7.37.41.41,0,0,0,30,7.28a.76.76,0,0,0-.09-.16A.31.31,0,0,0,29.8,7V7a.31.31,0,0,0-.07-.09s0,0,0-.06a.13.13,0,0,0-.08-.08l0-.06h0l0,0-.05,0,0,0a.23.23,0,0,0-.07-.1h0l-.06-.06h0a.1.1,0,0,0,0-.06.26.26,0,0,0-.1-.14h0v0s-.06-.08-.09-.09l0,0A.17.17,0,0,0,29,6h0a1.14,1.14,0,0,1-.11-.11l-.06-.06a3.65,3.65,0,0,0-.29-.29v0a.18.18,0,0,0-.09-.1h0a.15.15,0,0,0-.11-.09h0l-.08,0-.37-.35-.22-.11a.19.19,0,0,0-.14-.08h0l0,0c0-.05-.07-.08-.09-.08h0a.19.19,0,0,0-.09,0l-.08,0a.17.17,0,0,0-.11-.06l-.1,0,0,0-.16-.08-.14-.06,0,0a.22.22,0,0,0-.12-.07l-.05,0s0,0-.08,0h-.05A.18.18,0,0,0,26.11,4L26,4,26,4s0,0-.08,0h-.06l-.1-.05-.05,0s0,0-.08,0h-.06l-.1-.05-.05,0s0,0-.08,0h0l0,0h-.14a.19.19,0,0,0-.09,0l-.05,0s0,0-.07,0h-.06a.17.17,0,0,0-.1,0h0l-.31-.06s0-.05-.13,0h-.23l-.53-.06a.32.32,0,0,0-.15,0h-.57a.33.33,0,0,0-.14,0c-.19,0-.4,0-.68.07h-.15c-.05,0-.08,0-.08,0l-.34.06h-.16a.1.1,0,0,0-.07,0,.35.35,0,0,0-.09.06l-.09,0h-.12a.17.17,0,0,0-.14.08l-.07,0h-.09s-.07,0-.08,0l-.1.06-.06,0-.05,0s-.07,0-.07,0L20.11,4H20a.19.19,0,0,0-.16.1h0a.18.18,0,0,0-.15.08l0,0h0a.09.09,0,0,0-.07,0l-.22.12-.06,0-.05,0s-.06,0-.18.08h0s-.07,0-.1.1h-.05a.18.18,0,0,0-.15.1l0,0-.13.07h0s-.06,0-.1.1h0v0L18.27,5h0a.16.16,0,0,0-.1.09h0L18,5.2l-.18.15-.05,0h0s-.07,0-.1.1h0l-.14.13a1.85,1.85,0,0,0-.14.14.52.52,0,0,0-.1.11.31.31,0,0,0-.1.08.18.18,0,0,0-.09.1,0,0,0,0,0,0,0,.18.18,0,0,0,0,.07l0,0,0,0v0a.76.76,0,0,0-.11.14.22.22,0,0,0-.1.11l0,0s0,0-.05,0a.23.23,0,0,0-.05.1l-.06.08-.05.08,0,0a.22.22,0,0,0-.07.16L16.38,7l-.06.11h0s0,0,0,0l0,.07a1.26,1.26,0,0,0-.12.22Zm6-2.7h0l.06,0h0l.06,0h0l.09,0a.12.12,0,0,0,.1,0v0l.16-.06h.15l.48,0,.43,0h0a.2.2,0,0,0,.17,0l.16.09h0l.06,0,.27.14.22.12.05,0a2.86,2.86,0,0,1,.3.22l.08.07.08,0a5.66,5.66,0,0,1,1.42,2.15v0s0,.07,0,.07l.06.17h0l0,0a0,0,0,0,0,0,0s0,.08,0,.08a1.07,1.07,0,0,0,.07.19v.12l-.06,0,.06.07v.1l0-.07,0,0a.43.43,0,0,1,0,.07.19.19,0,0,0,0,.07.16.16,0,0,0,0,.09.18.18,0,0,0,0,.11v.08a.08.08,0,0,0,0,.06c0,.05,0,.08.06.07a1,1,0,0,1,0,.29v0a.07.07,0,0,0,0,.05v.21l0,.26h0V10h0l0,.33h0s0,0,0,.06a.43.43,0,0,0,0,0h0v.23a.06.06,0,0,0,0,0v0a.59.59,0,0,1,0,.23h0s-.05,0,0,.13v.07a.14.14,0,0,0,0,.06.08.08,0,0,0,0,.06.41.41,0,0,0-.05.09l0,.07s0,0,0,.07v0a0,0,0,0,0,0,0h0v.07l-.05.14h0a.13.13,0,0,0,0,.11v0l0,.07a1.8,1.8,0,0,0-.05.19s0,0,0,.07h0a.08.08,0,0,0,0,0,.15.15,0,0,0,0,.06.13.13,0,0,0,0,.14l-.06.09,0,.07s0,0,0,.08h0a2.09,2.09,0,0,0-.13.26l0,0-.07.11h0s0,0,0,0l0,0h0l-.07,0-.05.08a0,0,0,0,0,0,0h0l0,.07-.05.08,0,0a.17.17,0,0,0-.06.11,6.85,6.85,0,0,1-.91.88.47.47,0,0,0-.09.06h0l0,0-.16.09-.13.09-.05,0-.17.09h-.05s-.05,0-.08.07l-.14,0h0s-.06,0-.07,0l-.09,0-.08,0h-.24c-.05,0-.08,0-.08,0l-.07,0-.09.05a.15.15,0,0,0-.1,0,.14.14,0,0,0-.09,0l-.15-.06h0s0,0-.12,0h0l-.08,0,0,0h-.15l-.08-.05-.07,0h0s0,0-.07,0h-.06l-.09-.05-.07,0s0,0-.06,0L21.82,15a.16.16,0,0,0-.09,0h0c0-.05-.07-.09-.1-.09s0,0,0,0a.74.74,0,0,0-.16-.12h0a.18.18,0,0,0-.11-.09h0l-.14-.08v0c0-.06-.08-.1-.11-.1h0l-.09-.1-.07-.08a3.53,3.53,0,0,0-.28-.28l-.07-.11h0a.22.22,0,0,0-.09-.16h0l-.11-.16a6,6,0,0,1-.85-2.06v0h0v0a.08.08,0,0,0,0,0h0v0l-.06-.3V11a.15.15,0,0,0,0-.07.13.13,0,0,0,0-.12h0l-.07-.36a.13.13,0,0,0,0-.09l.06-.83,0-.3h0a.17.17,0,0,0,0-.14h0a.17.17,0,0,0,0-.14v0a.11.11,0,0,0,0-.08V8.68l0-.1,0-.09a.25.25,0,0,0,0-.07l.09-.29a0,0,0,0,1,0,0l.06-.18a5.16,5.16,0,0,1,1.48-2.36l.3-.28a.19.19,0,0,0,.14-.09l0,0,.07,0h0l.1-.06,0,0Zm4.72,3.49h0v0h0Zm-6.95,8.37h0l0,0v0" transform="translate(15.35 -1.72)"/><path class="cls-1" d="M60.64,1.73h0s-.06,0-.11,0,0,0,0,0a.18.18,0,0,0-.07.16.35.35,0,0,0-.06.09v0l0,0c-.11.09-.24.22-.38.35s-.25.24-.33.34-.06.05-.1.1h0a.08.08,0,0,0-.08,0h0a0,0,0,0,1,0,0l0,0h0l0,.05a.22.22,0,0,0-.09.1h0l-.12.06,0,0h0s0,0-.07,0l-.05,0c-.17.09-.52.24-.86.37a2.09,2.09,0,0,0-.3.11h0l0,0h0l-.22.08h0s-.06,0-.07,0l-.08,0-.06,0h-.07A.18.18,0,0,0,57,4l-.38.19-.26.13h0a.2.2,0,0,0-.16.1h0s0,0,0,0l-.13.08h0s-.05,0-.09.08l0,0h0a.21.21,0,0,0-.15.08l-.23.15L55.3,5a.22.22,0,0,0-.13.06.21.21,0,0,0,0,.06l-.06.06-.25.2a.19.19,0,0,0-.13.07l0,0a.24.24,0,0,0-.08.09h0a2.24,2.24,0,0,0-.2.21l-.06.08h0a.14.14,0,0,0-.1.08l0,0,0,0s-.07.08-.06.12l-.25.3s0,0-.09.1a.25.25,0,0,0,0,.07l-.06.11v0l-.07.1h0l0,.08s0,0,0,0l0,0a.23.23,0,0,0-.07.13h0c-.06.09-.09.2-.07.23l-.07.09,0,.07s0,0,0,.08v0l0,.06,0,0a.15.15,0,0,0,0,.12.14.14,0,0,0,0,.07.08.08,0,0,0,0,.06L53,8l0,.07s0,0,0,.08a.14.14,0,0,0,0,.06.22.22,0,0,0,0,.09h0c0,.1,0,.21-.05.33h0a1.06,1.06,0,0,0,0,.37l0,.4h0V11l-.17.14h0l-.08,0-.09,0-.06,0h0a.35.35,0,0,0-.16.07,1.05,1.05,0,0,0-.26.13h0a.09.09,0,0,0-.07,0l-.09,0-.07,0h0a.17.17,0,0,0-.13.07l-.08,0s-.06,0-.07,0l-.11.07h0l-.15.05-.08,0,0,0V13l.06,0h0a.05.05,0,0,0,.05,0h.07l.12,0h0a.55.55,0,0,0,.22-.1l.47-.19a.42.42,0,0,0,.15-.06l.54-.23.12-.05.55-.24A.51.51,0,0,0,53.6,12l.5-.22a.76.76,0,0,0,.22-.1l.45-.2h0a.68.68,0,0,0,.27-.13l.15-.06h0a.06.06,0,0,0,.05,0h0l.07,0,.08,0h0a.25.25,0,0,0,.18-.1v0h.06l0,0h0l.07,0a.3.3,0,0,0,.13-.07l.06,0,.08,0h0a.23.23,0,0,0,.17-.1h.06l.06,0h0l.06,0a.35.35,0,0,0,.14-.07l.07,0,.08-.06,0,0A.56.56,0,0,0,57,10.5l.31-.14,0,0,.1-.05h0a.79.79,0,0,0,.29-.15h0l.15,0,0,0h0l0,0a.36.36,0,0,0,.13-.08l.07,0,.06,0h.06a.25.25,0,0,0,.16-.08l0,0h0l.06,0h0l.06,0a.31.31,0,0,0,.12-.07h0l0,0,.09,0h0a.73.73,0,0,0,.29-.14h0l.16-.05.25-.11v-1h-.14c-.08,0-.14,0-.14,0h0l-.1.06h0l-.15.06-.06,0h0a.18.18,0,0,0-.15.08l0,0h0s-.07,0-.08,0l0,0-.14.05h0a.21.21,0,0,0-.14.07l-.07,0a.1.1,0,0,0-.07,0h0a.58.58,0,0,1-.15.06h0a.21.21,0,0,0-.13.07l-.11,0h0a.9.9,0,0,1-.63.05A.22.22,0,0,0,57.12,9h0l-.06,0S57,8.86,57,8.86v0a.54.54,0,0,0-.06-.11s0-.06,0-.1l0-.13a1.08,1.08,0,0,0-.05-.21.43.43,0,0,0,0,0,.22.22,0,0,0,0-.12,1.6,1.6,0,0,1,.06-.32h0a.13.13,0,0,0,0-.09c0-.11.07-.24.1-.37l.11-.38s0,0,0,0a.37.37,0,0,0,0-.09.17.17,0,0,0,.08-.11.17.17,0,0,0,0-.11,1.23,1.23,0,0,0,.15-.16,1.36,1.36,0,0,0,.12-.17.15.15,0,0,0,.05-.07c.1-.11.18-.21.24-.29l0,0A.33.33,0,0,0,58,5.8l.07,0,0,0,.08-.09a3.52,3.52,0,0,0,.33-.25h0s0,0,0,0a.58.58,0,0,0,.24-.12h0a.27.27,0,0,0,.12-.09l.05,0,.2-.15a.56.56,0,0,0,.27-.28.77.77,0,0,0,.09-.13c.08-.07.12-.12.11-.14l0-.07,0-.08h0c.07,0,.12-.09.12-.12v0a.33.33,0,0,0,0-.06.37.37,0,0,0,0-.09A.17.17,0,0,0,60,4a.31.31,0,0,0,0-.08.2.2,0,0,0,.07-.11l0-.07h0a.08.08,0,0,0,0-.07l0-.09a.28.28,0,0,0,.05-.12c0-.06,0-.12.07-.17l0,0,0,0h0s0,0,0,0h0v0A.7.7,0,0,0,60.35,3l0-.08h0a.11.11,0,0,0,0-.08.85.85,0,0,0,0-.17c.05-.07.07-.13.05-.15a.11.11,0,0,0,0-.1.21.21,0,0,0,.06-.1l0-.07h0a.08.08,0,0,0,0-.08.22.22,0,0,0,0-.09V2a.11.11,0,0,0,0-.06.35.35,0,0,0,.06-.09.14.14,0,0,0,0-.09l.1,0Z" transform="translate(15.35 -1.72)"/><path class="cls-1" d="M56.8,11.65s-.07,0-.1.09h-.05s-.08,0-.08,0a1.44,1.44,0,0,0-.24.09l-.13.06h0a.13.13,0,0,0-.13.06l-.13.09,0,0-.08,0h0s-.06,0-.07,0l-.08,0-.11.05,0,0-.1.06h-.07s-.08,0-.13.06a.51.51,0,0,0-.13.09l0,0-.08,0h0a.1.1,0,0,0-.07,0l-.08.05-.1.05,0,0-.09.05h-.07a.16.16,0,0,0-.14.06l-.13.09,0,0-.09,0h0s-.07,0-.08,0l-.09.05-.06,0a.55.55,0,0,0-.16.09h0l-.14.06-.07,0h0a.17.17,0,0,0-.13.07.15.15,0,0,0-.07,0,.2.2,0,0,0-.15.09v0l-.05,0v.05h0L53,15l0,1.54L53,32.94l0,16.14s0,0,0,.08,0,0,0,0a.09.09,0,0,0,0,0s0,0,0,.06a.33.33,0,0,0,0,.1v.16l0,.11h0s-.07,0-.07.06a.14.14,0,0,0,0,.07.29.29,0,0,0-.06.1l0,.05s0,0,0,.07v0h0a4.86,4.86,0,0,1-.27.49.86.86,0,0,0-.07.1.25.25,0,0,0,0,.07l0,.07-.23.32,0,0,0,0s-.07,0-.11.1h0a.2.2,0,0,0-.16.09v0l-.21.1-.06,0-.07,0h0a1.55,1.55,0,0,0-.24.13.29.29,0,0,0-.1.07s0,0,0,0-.09.08-.16.16h0l0,0h0a.2.2,0,0,0-.16.11.12.12,0,0,0,0,.08l0,0-.16.2v0l-.05.06a.09.09,0,0,0-.07,0,.24.24,0,0,0-.07.16h0l-.06.07-.06.11h0s0,0,0,0l0,.06a1.47,1.47,0,0,0-.12.23l-.06.14s0,0,0,.08v0l-.05.07c0,.06,0,.11,0,.14l-.06.17s-.06,0-.06.07v0a.47.47,0,0,0-.09.2s0,0,0,.06v0l-.06.19s0,0,0,.09,0,.12,0,.17h0a.17.17,0,0,0,0,.13s0,.05,0,.09,0,.19,0,.26h0a.2.2,0,0,0,0,.09.11.11,0,0,0,0,.07s0,.07,0,.08.06,0,.12-.06h0s0,0,0,0l0,0a.31.31,0,0,0,.09-.15l.2-.22a5.27,5.27,0,0,1,.69-.65.21.21,0,0,0,.13-.09h0a6.29,6.29,0,0,1,1.21-.65,3,3,0,0,0,.46-.18l.1,0h0s0,0,.05,0h0l.07,0,.08,0h0a.25.25,0,0,0,.18-.1h0a.13.13,0,0,0,.09,0v0L53,53l.22-.11.22-.12.13-.07,0,0h0a.25.25,0,0,0,.18-.1v0l.12-.08,0,0,.11-.07a.22.22,0,0,0,.09-.07l.1-.06h0l.1-.07a.21.21,0,0,0,.12-.1l.06-.05h0a.23.23,0,0,0,.17-.1l0-.05,0,0,.09-.07,0,0h0a.43.43,0,0,0,.24-.15.38.38,0,0,0,.07-.11l.2-.17.28-.28,0,0a.23.23,0,0,0,.08-.13l.12-.16h0c.1-.09.16-.15.16-.18l0-.07a.25.25,0,0,0,0-.07l0,0c.07,0,.11-.09.11-.12h0l0-.07a.26.26,0,0,0,0-.1.69.69,0,0,0,.12-.19,1.2,1.2,0,0,0,.06-.17h0a.09.09,0,0,0,0-.08l0,0a.81.81,0,0,0,.06-.13l.17-.35v-.28h0a.11.11,0,0,0,0-.12.09.09,0,0,0,0-.11h0a.23.23,0,0,0,0-.16.1.1,0,0,0,0-.12h0l0-17.11,0-17.91h0V11.74c0-.05,0-.09,0-.09" transform="translate(15.35 -1.72)"/><path class="cls-1" d="M4.68,55.37c.05,0,.09-.06.09-.09l.07-.05h0l0,0h0s.09-.07.09-.1a.08.08,0,0,0,0,0l0,0a.44.44,0,0,0,.1-.15l.13-.12.26-.29a.41.41,0,0,0,.22-.15l.06-.08.06,0,0,0a.39.39,0,0,0,.14-.1L6.19,54l0,0,.1-.11h0l.16-.1.18-.11s0,0,0,0l.12-.09h0a3.45,3.45,0,0,0,1-.29L8,53.2H8l0,0H8l.07,0,.14-.07.06,0A.26.26,0,0,0,8.42,53l.16-.07h0s0,0,.05,0l.09,0,.14-.06A.45.45,0,0,0,9,52.69l.06,0,0,0h0a.26.26,0,0,0,.09-.06l0,0,.18-.11.29-.18.12-.08a1.17,1.17,0,0,0,.27-.21h0l0,0,.12-.11h0a.23.23,0,0,0,.16-.1v0l0,0a.28.28,0,0,0,.11-.11c.07,0,.11-.09.09-.12l.18-.15a3.65,3.65,0,0,0,.29-.29h0a.28.28,0,0,0,.11-.11c.06,0,.1-.08.1-.11l0,0a.18.18,0,0,0,.05-.07l.19-.19.17-.35s0-.05,0-.08l.08-.16a.66.66,0,0,0,.13-.25h0a1.54,1.54,0,0,0,.16-.47h0a.14.14,0,0,0,0-.07,2.09,2.09,0,0,0,.05-.21h0a.11.11,0,0,0,0-.13h0a.22.22,0,0,0,0-.16h0a.17.17,0,0,0,0-.1v0a.64.64,0,0,1,0-.1v0a3.79,3.79,0,0,0,.06-.86V47h0l0-.38,0-.54.15-.11.17-.06,0,0,.05,0,.13-.07.07,0,.06,0h.05a.22.22,0,0,0,.15-.06l.18-.08h0l.14-.07.06,0,.07,0h.05a.23.23,0,0,0,.14-.07l.08,0h0a.14.14,0,0,0,.08,0l.09-.05v-1h0l0,0v0l-.08,0h-.14a.16.16,0,0,0-.13.08l-.07,0s-.06,0-.07,0l-.05,0-.08.05h0l-.15.06-.06,0h-.05a.21.21,0,0,0-.14.07l-.07,0a.1.1,0,0,0-.07,0l-.12.07h0l-.15.06a.09.09,0,0,0-.06,0H12.6a.21.21,0,0,0-.15.07l0,0h0s-.06,0-.07,0l-.12.06h0L12,45,12,45h-.05a.18.18,0,0,0-.15.09h0a.13.13,0,0,0-.08,0l-.12.07h0l-.15.06a.09.09,0,0,0-.06,0h-.06a.19.19,0,0,0-.13.06l-.08,0-.06,0-.12.07h0l-.14.06-.07,0h0a.17.17,0,0,0-.13.07l-.08,0s-.06,0-.06,0l-.13.07h0l-.14.06-.06,0H9.89a.16.16,0,0,0-.13.07l-.08,0-.06,0-.12.07h0l-.14.06-.07,0h0a.17.17,0,0,0-.15.09H9s-.07,0-.08,0l-.09.05-.28.12h0a.17.17,0,0,0-.14.08H8.34s-.06,0-.07,0l-.12.07h0L8,46.72l-.07,0h0a.16.16,0,0,0-.13.06l-.08,0s-.06,0-.07,0l-.11.07h0L7.31,47l-.06,0h0a.6.6,0,0,0-.26.14l-.16.06h0a.1.1,0,0,0-.07,0l0,0-.34.15h0a.16.16,0,0,0-.15.09H6.12a.1.1,0,0,0-.07,0l-.12.07h0l-.14.06-.06,0h0s-.08,0-.11.12l-.07.1.1-.07h0a.33.33,0,0,0,0,.13c0-.07,0,0,0,.24v.13a1.67,1.67,0,0,0,0,.39s0,0,0,0a.09.09,0,0,0,.08.08.2.2,0,0,0,.15-.08l0,0h0l.05,0h0l.07,0H6l.33-.14a.11.11,0,0,0,.07,0l.35-.14.07,0,.06,0,.49-.19.16-.07.05,0L7.78,48l.17.06.09,0,0,0a1.07,1.07,0,0,1,.17.15,1.7,1.7,0,0,1,.19.55v.08a.13.13,0,0,0,0,.06.13.13,0,0,1,0,.1s0,0,0,.06a.56.56,0,0,0,0,.08l0,0H8.32l0,.18v.17l-.06.09,0,.06s0,0,0,.08,0,.05,0,.06a.19.19,0,0,0,0,.09l0,.06s0,0,0,.08h0a.5.5,0,0,0-.1.19s-.05.09-.08.15l-.1.16,0,0c-.06.06-.08.11-.06.16L7.6,51a3,3,0,0,1-.69.51h0l-.09,0-.18.09h0a.19.19,0,0,0-.16.1h0a.19.19,0,0,0-.15.1h0a.2.2,0,0,0-.1.09h0L6,52.12H6l-.11.11h0s-.06,0-.1.1h0s0,0-.1.12l-.09.12a2.34,2.34,0,0,0-.13.22l0,0,0,0c0,.09-.1.18-.13.25a1.25,1.25,0,0,0-.13.3v0l0,.06,0,.07s0,0,0,.08,0,0,0,0a.61.61,0,0,0-.11.22.79.79,0,0,0-.06.25s0,0,0,.08h0a1.46,1.46,0,0,1,0,.2s0,0,0,.13l-.06.25s0,0,0,.14h0l0,.14a.37.37,0,0,0,0,.09.13.13,0,0,0-.06.1s0,.06.1,0" transform="translate(15.35 -1.72)"/><rect class="cls-2" width="92.95" height="72.82"/></svg>