<svg id="Layer_1" data-name="Layer 1" xmlns="http://www.w3.org/2000/svg" viewBox="0 0 47.17 30"><defs><style>.cls-1{fill:#00909a;}</style></defs><path class="cls-1" d="M4.72,15.72H6.29a3.13,3.13,0,0,0,3.14-3.14V3.14A3.14,3.14,0,0,0,6.29,0H0V15.72Zm0-3.14H3.15V3.14H4.72A1.57,1.57,0,0,1,6.29,4.72V11h0A1.57,1.57,0,0,1,4.72,12.58Z"/><path class="cls-1" d="M45.6,0A1.57,1.57,0,0,0,44,1.57V15.72H45.6a1.57,1.57,0,0,0,1.57-1.57V0Z"/><path class="cls-1" d="M31.45,11a4.74,4.74,0,0,0-.77-2.58l-.12.12A5.35,5.35,0,0,1,27.94,10a1.53,1.53,0,0,1,.36,1,1.57,1.57,0,1,1-3.14,0v-.87H22v4a1.57,1.57,0,0,0,1.57,1.57h3.15A4.72,4.72,0,0,0,31.45,11Z"/><path class="cls-1" d="M25.16,4.72A1.58,1.58,0,0,1,26,3.31V0H22V5.58h3.15Z"/><path class="cls-1" d="M14.15,6.21V0H12.58A1.57,1.57,0,0,0,11,1.57v4h1.57A2.27,2.27,0,0,1,14.15,6.21Z"/><path class="cls-1" d="M20.44,5.58v-4A1.57,1.57,0,0,0,18.87,0H17.3V6.21a2.25,2.25,0,0,1,1.57-.63Z"/><path class="cls-1" d="M34.59,15.72a1.57,1.57,0,0,0,1.57-1.57v-4H33v5.58Z"/><path class="cls-1" d="M36.16,5.58V3.85h0V1.57A2.27,2.27,0,0,1,36.79,0h-.63A3.15,3.15,0,0,0,33,3.14V6.21a2.27,2.27,0,0,1,1.57-.63Z"/><path class="cls-1" d="M42.45,8.51a3.86,3.86,0,0,1-3.09,1.63h0v4a1.57,1.57,0,0,0,1.57,1.57h1.57Z"/><path class="cls-1" d="M12.58,6.29H11v6.29a3.13,3.13,0,0,0,3.14,3.14H17.3a3.14,3.14,0,0,0,3.14-3.14V9.43h6.29a4.72,4.72,0,1,0,0-9.43V3.14a1.58,1.58,0,0,1,0,3.15H18.87A1.57,1.57,0,0,0,17.3,7.86v4.72H15.72A1.58,1.58,0,0,1,14.15,11V7.86A1.57,1.57,0,0,0,12.58,6.29Z"/><path class="cls-1" d="M25.87,10.11V11a.87.87,0,1,0,.87-.87Z"/><path class="cls-1" d="M16,16.33v.86a.87.87,0,1,0,1.73,0,.86.86,0,0,0-.86-.86Z"/><path class="cls-1" d="M13.65,16.33v.86a.87.87,0,1,0,.87-.86Z"/><path class="cls-1" d="M39.31,4.72a1.58,1.58,0,0,1-.46,1.11,1.61,1.61,0,0,1-1.12.46H34.59a1.56,1.56,0,0,0-1.3.69,1.58,1.58,0,0,0-.27.88V9.43h6.29a3.14,3.14,0,0,0,3.14-3.14V3.14A3.15,3.15,0,0,0,39.31,0h-.87a1.57,1.57,0,0,0-1.57,1.57V3.14h.86A1.57,1.57,0,0,1,39.31,4.72Z"/><path class="cls-1" d="M.61,27.37h1.1v-.29c0-.17,0-.26-.26-.26H.61v-.93H2.14v-.55H0v3.44c0,.26.1.27.26.27H2.18V28.5H.61Z"/><path class="cls-1" d="M3.69,28.57c-.45,0-.58-.1-.58-.85s.08-.83.6-.83a1.36,1.36,0,0,1,.6.13l.06-.53a1.53,1.53,0,0,0-.65-.12c-.76,0-1.18.41-1.18,1.34s.3,1.37,1,1.37a2,2,0,0,0,.86-.17l-.06-.46A2,2,0,0,1,3.69,28.57Z"/><path class="cls-1" d="M5.89,26.37c-.76,0-1.12.41-1.12,1.34s.34,1.37,1.11,1.37S7,28.74,7,27.71,6.71,26.37,5.89,26.37Zm0,2.2c-.42,0-.54-.1-.54-.85s.06-.83.54-.83.54.21.54.83S6.31,28.57,5.88,28.57Z"/><path class="cls-1" d="M8.72,26.37a.82.82,0,0,0-.75.37c0-.28,0-.34-.28-.34H7.5v2.38c0,.26.09.27.26.27h.3V27.41c0-.37.08-.52.55-.52s.5.08.5.57v1.32c0,.26.09.27.25.27h.31V27.54C9.67,26.74,9.5,26.37,8.72,26.37Z"/><path class="cls-1" d="M11.29,26.37c-.76,0-1.12.41-1.12,1.34s.34,1.37,1.12,1.37,1.11-.34,1.11-1.37S12.11,26.37,11.29,26.37Zm0,2.2c-.43,0-.55-.1-.55-.85s.06-.83.55-.83.54.21.54.83S11.71,28.57,11.29,28.57Z"/><path class="cls-1" d="M15.65,26.37a.8.8,0,0,0-.77.35c-.12-.23-.35-.35-.78-.35a.74.74,0,0,0-.72.37c0-.28,0-.34-.28-.34h-.2v2.38c0,.26.09.27.26.27h.31V27.41c0-.37.07-.52.52-.52s.46.08.46.57v1.32c0,.26.09.27.26.27H15V27.44c0-.39.07-.55.53-.55s.46.08.46.57v1.32c0,.26.09.27.26.27h.3V27.54C16.56,26.74,16.43,26.37,15.65,26.37Z"/><path class="cls-1" d="M18.05,28.4l-.61-2h-.58l.73,2.26c.08.22.12.32.28.37-.07.24-.18.61-.26.94a.72.72,0,0,0,.23,0c.25,0,.32,0,.37-.27l.17-.69.8-2.64h-.55Z"/><path class="cls-1" d="M22,26.37a4.11,4.11,0,0,0-.85.12V27a3.14,3.14,0,0,1,.79-.12c.45,0,.49.16.5.64a1.44,1.44,0,0,0-.46-.06c-.86,0-1,.39-1,.83s.13.78.85.78c.52,0,.68-.14.73-.37,0,.25,0,.34.26.34H23V27.52C23,26.64,22.77,26.37,22,26.37Zm.44,1.8c0,.28-.09.4-.49.4s-.43-.14-.43-.33,0-.37.54-.37a1.94,1.94,0,0,1,.38,0Z"/><path class="cls-1" d="M24.84,26.37a.81.81,0,0,0-.75.37c0-.28,0-.34-.28-.34h-.2v2.38c0,.26.09.27.26.27h.31V27.41c0-.37.08-.52.55-.52s.49.08.49.57v1.32c0,.26.09.27.26.27h.31V27.54C25.79,26.74,25.62,26.37,24.84,26.37Z"/><path class="cls-1" d="M28.22,25.32h-.31V26.5a.88.88,0,0,0-.5-.13c-.81,0-1.12.41-1.12,1.34s.3,1.37,1.05,1.37a.69.69,0,0,0,.66-.3c0,.19.05.27.28.27h.19V25.58C28.47,25.32,28.38,25.32,28.22,25.32Zm-.83,3.25c-.42,0-.53-.1-.53-.85s.05-.83.53-.83.53.21.53.83S27.87,28.57,27.39,28.57Z"/><path class="cls-1" d="M33,25.34H30.36v.55h1v2.89c0,.26.09.27.26.27H32V25.89h1Z"/><path class="cls-1" d="M34,26.37c-.76,0-1.12.41-1.12,1.34s.34,1.37,1.11,1.37,1.12-.34,1.12-1.37S34.84,26.37,34,26.37Zm0,2.2c-.42,0-.54-.1-.54-.85s.06-.83.54-.83.54.21.54.83S34.44,28.57,34,28.57Z"/><path class="cls-1" d="M37.15,28.06c0,.35-.08.51-.43.51s-.53,0-.53-.49V26.4h-.56V28c0,.85.23,1.11.95,1.11a.62.62,0,0,0,.66-.38c0,.26,0,.35.28.35h.2V26.4h-.57Z"/><path class="cls-1" d="M38.79,26.75c0-.28,0-.35-.28-.35h-.19v2.38c0,.26.09.27.25.27h.31V27.51c0-.5.13-.62.51-.62a3.71,3.71,0,0,1,.39,0l0-.5a1.3,1.3,0,0,0-.35,0A.67.67,0,0,0,38.79,26.75Z"/><path class="cls-1" d="M40.47,25.37a.26.26,0,0,0-.3.3c0,.2.08.3.3.3s.31-.1.31-.3S40.69,25.37,40.47,25.37Z"/><path class="cls-1" d="M40.51,26.4H40.2v2.38c0,.26.09.27.26.27h.31V26.67C40.77,26.41,40.67,26.4,40.51,26.4Z"/><path class="cls-1" d="M42.33,27.52c-.41-.12-.47-.17-.47-.35s.07-.28.43-.28a1.87,1.87,0,0,1,.6.09l.06-.49a1.53,1.53,0,0,0-.65-.12c-.66,0-1,.25-1,.83,0,.41,0,.57.75.76.4.11.47.15.47.34s-.12.27-.44.27a1.34,1.34,0,0,1-.78-.2l-.11.48a1.22,1.22,0,0,0,.82.23c.68,0,1.09-.26,1.09-.8S43,27.71,42.33,27.52Z"/><path class="cls-1" d="M46.21,26.37a.8.8,0,0,0-.77.35c-.12-.23-.35-.35-.78-.35a.74.74,0,0,0-.72.37c0-.28,0-.34-.28-.34h-.2v2.38c0,.26.09.27.26.27H44V27.41c0-.37.07-.52.52-.52s.46.08.46.57v1.32c0,.26.09.27.26.27h.3V27.44c0-.39.07-.55.53-.55s.46.08.46.57v1.32c0,.26.09.27.26.27h.3V27.54C47.12,26.74,47,26.37,46.21,26.37Z"/><path class="cls-1" d="M1.24,19.87a.27.27,0,0,0,.31.3.27.27,0,0,0,.3-.3.27.27,0,0,0-.3-.3A.28.28,0,0,0,1.24,19.87Z"/><path class="cls-1" d="M.55,19.87c0,.2.09.3.29.3s.31-.1.31-.3a.27.27,0,0,0-.31-.3A.26.26,0,0,0,.55,19.87Z"/><path class="cls-1" d="M8,22.35l0-.5c-.8-.17-1-.55-1.63-.55a1.19,1.19,0,0,0-.68.21V22a1.6,1.6,0,0,1,.62-.14,3.14,3.14,0,0,1,1.1.38A1.93,1.93,0,0,1,7,22.5a3.06,3.06,0,0,1-1.48.18H2.31c-.42,0-.5-.07-.5-.34V20.52H1.55c-.16,0-.26,0-.26.26v.07c-.68.23-1.25.28-1.25,1,0,.37.07.84.74.84.35,0,.5-.12.55-.36,0,.72.3.88.91.89H5.7a2.76,2.76,0,0,0,1.67-.37A3.74,3.74,0,0,0,8,22.35Zm-6.67-.54c0,.23-.07.34-.42.34s-.34,0-.34-.34.14-.31.76-.48Z"/><path class="cls-1" d="M14.49,23.93c0-.18-.09-.27-.28-.27a.27.27,0,1,0,0,.54C14.4,24.2,14.49,24.11,14.49,23.93Z"/><path class="cls-1" d="M13.86,23.93c0-.18-.09-.27-.28-.27s-.26.09-.26.27.08.27.26.27S13.86,24.11,13.86,23.93Z"/><path class="cls-1" d="M19,19.79v2.58c0,.3-.23.31-.53.31s-.45,0-.45-.39v-1H17.5v1.08c0,.29-.14.29-.33.29s-.31-.08-.31-.47V21.5h-.5v.88c0,.3-.13.3-.34.3s-.39,0-.39-.46V21.5h-.5v.91c0,.27-.12.27-.44.27s-.49,0-.49-.39v-1h-.53v1.05c0,.31-.21.31-.53.31H9.56c-.41,0-.43-.11-.43-.4V19.53H8.86c-.17,0-.26,0-.26.26v2.59c0,.65.3.85.9.87h3.69a.83.83,0,0,0,.41-.09.64.64,0,0,0,.22-.3c.16.31.45.39.87.39h0c.38,0,.51-.11.59-.38.07.3.2.4.67.4a.5.5,0,0,0,.56-.35c.06.21.24.35.61.35a.48.48,0,0,0,.54-.4c.14.3.41.38.82.38h0a1,1,0,0,0,1.06-1.08V19.53h-.27C19.1,19.53,19,19.53,19,19.79Z"/><path class="cls-1" d="M20.08,19.79v3.46h.27c.17,0,.26,0,.26-.26V19.53h-.27C20.18,19.53,20.08,19.53,20.08,19.79Z"/><path class="cls-1" d="M22.6,21.3c-.8,0-1,.62-1,1.08s.06.89.84.89c.36,0,.51-.1.58-.25,0,.61-.16.66-.73.66a1.68,1.68,0,0,1-.62-.11l-.09.58a1.38,1.38,0,0,0,.71.15c.94,0,1.22-.54,1.22-1.5S23.33,21.3,22.6,21.3Zm-.06,1.39c-.44,0-.43-.11-.43-.35s0-.46.44-.46.51.35.51.7C23,22.65,22.84,22.69,22.54,22.69Z"/><path class="cls-1" d="M27.54,22.26c0-.63-.16-.93-1.16-1.51l-.3.49c.86.5,1,.6,1,1s-.11.39-.73.39c-.37,0-.68,0-.68,0l-.07.59a5.58,5.58,0,0,0,.76,0C27.2,23.23,27.54,23,27.54,22.26Z"/><path class="cls-1" d="M38,20.65a.27.27,0,0,0,.31.3.27.27,0,0,0,.3-.3.27.27,0,0,0-.3-.3A.28.28,0,0,0,38,20.65Z"/><path class="cls-1" d="M37.28,20.65a.3.3,0,1,0,.6,0,.3.3,0,0,0-.6,0Z"/><path class="cls-1" d="M41.49,22v-.1c0-1-.29-1.37-.92-1.37a.89.89,0,0,0-.91,1c0,.36,0,.81.81.81.32,0,.47-.11.53-.26,0,.35,0,.5-.84.5H38.68c-.32,0-.49,0-.49-.38v-1h-.53v1.05c0,.31-.21.31-.53.31a.88.88,0,0,1-.4-.05,1.55,1.55,0,0,0,.05-.45c0-.87-.38-1.17-1-1.17-.85,0-1.14.6-1.77,1.67-.17,0-.2-.13-.2-.45v-.72h-.5v.9c0,.27-.12.27-.44.27H29.15c-.41,0-.43-.1-.43-.39V19.48h-.27c-.17,0-.26,0-.26.27v2.59c0,.64.3.85.9.87H33c.35,0,.47-.13.55-.4.11.3.33.4.69.4h1.45a1.2,1.2,0,0,0,.91-.28c0,.19.19.28.58.28h0a.91.91,0,0,0,.45-.09.64.64,0,0,0,.22-.3.81.81,0,0,0,.8.39h1.46C41,23.21,41.49,23,41.49,22Zm-1-.21c-.38,0-.39-.09-.39-.3s.08-.38.43-.38.45.23.45.57C40.93,21.79,40.79,21.83,40.51,21.83Zm-4.8.8H34.57c.52-.88.69-1.1,1.2-1.1.33,0,.53.08.53.67C36.3,22.61,36,22.63,35.71,22.63Z"/><path class="cls-1" d="M40.63,20a.3.3,0,1,0,.6,0,.3.3,0,0,0-.6,0Z"/><path class="cls-1" d="M39.93,20a.27.27,0,0,0,.3.3.27.27,0,0,0,.31-.3.28.28,0,0,0-.31-.3A.27.27,0,0,0,39.93,20Z"/><path class="cls-1" d="M41.78,20.27a3.22,3.22,0,0,1,.72,2.29c-.23.07-.46.14-.71.19l.16.54a4.9,4.9,0,0,0,1.58-.57h0c.11.36.39.48.86.5h1.72a1,1,0,0,0,1-1.08V19.48h-.27c-.17,0-.26,0-.26.27v2.57c0,.31-.22.31-.53.31H44.45c-.42,0-.43-.1-.43-.39V19.48h-.27c-.17,0-.26,0-.26.27v2.43a4.92,4.92,0,0,1-.5.22,3.75,3.75,0,0,0-.81-2.46Z"/></svg>